<?xml version="1.0" encoding="UTF-8" standalone="no"?>
<!-- Created with Inkscape (http://www.inkscape.org/) -->

<svg
   width="99.999992"
   height="101.33546"
   viewBox="0 0 26.458332 26.811676"
   version="1.1"
   id="svg1580"
   inkscape:version="1.2.2 (b0a8486541, 2022-12-01)"
   sodipodi:docname="img_vertebra.svg"
   xmlns:inkscape="http://www.inkscape.org/namespaces/inkscape"
   xmlns:sodipodi="http://sodipodi.sourceforge.net/DTD/sodipodi-0.dtd"
   xmlns="http://www.w3.org/2000/svg"
   xmlns:svg="http://www.w3.org/2000/svg">
  <sodipodi:namedview
     id="namedview1582"
     pagecolor="#505050"
     bordercolor="#eeeeee"
     borderopacity="1"
     inkscape:showpageshadow="0"
     inkscape:pageopacity="0"
     inkscape:pagecheckerboard="0"
     inkscape:deskcolor="#505050"
     inkscape:document-units="mm"
     showgrid="false"
     inkscape:zoom="4.679522"
     inkscape:cx="45.731166"
     inkscape:cy="54.279048"
     inkscape:window-width="1364"
     inkscape:window-height="751"
     inkscape:window-x="0"
     inkscape:window-y="15"
     inkscape:window-maximized="1"
     inkscape:current-layer="layer1" />
  <defs
     id="defs1577" />
  <g
     inkscape:label="Слой 1"
     inkscape:groupmode="layer"
     id="layer1"
     transform="translate(-138.99241,-143.95303)">
    <ellipse
       style="fill:#366caa;fill-opacity:1;stroke-width:3.01451;stroke-linejoin:round"
       id="path10835"
       cx="152.22157"
       cy="157.35887"
       rx="13.229166"
       ry="13.405837" />
    <path
       style="fill:#2d5a8c;fill-opacity:1;stroke-width:0.114294;stroke:none"
       d="m 158.76032,163.97297 c -1.89699,-1.92164 -2.98889,-2.9226 -3.43732,-3.15103 -0.27666,-0.14095 -0.71523,-0.40545 -0.97454,-0.58778 -0.41704,-0.29325 -0.53253,-0.32237 -1.00007,-0.25227 -0.28017,0.16685 -0.61981,0.29935 -1.06723,-0.31453 -0.22988,-0.23542 -0.3869,-0.45911 -0.34892,-0.49707 0.0379,-0.038 0.12644,0.0382 0.1966,0.16933 0.0702,0.13111 0.20291,0.23839 0.295,0.23839 0.17542,0 0.23244,-0.18198 0.0776,-0.24763 -0.13642,-0.0578 -0.5959,-0.74166 -0.5959,-0.88684 0,-0.0702 0.12983,-0.18683 0.28853,-0.25913 0.29125,-0.13271 0.74011,-0.74174 0.74011,-1.00421 0,-0.10054 -0.11712,-0.12013 -0.40003,-0.067 -0.41455,0.0778 -0.50357,-0.0132 -0.25716,-0.26298 0.11519,-0.11673 -0.0204,-0.13389 -0.70011,-0.0885 -0.46364,0.031 -0.89825,0.11154 -0.96578,0.17908 -0.15422,0.15422 -0.30568,0.15843 -0.30568,0.009 0,-0.0629 0.0772,-0.1143 0.17144,-0.1143 0.0943,0 0.17145,-0.0545 0.17145,-0.12104 0,-0.0666 0.0514,-0.0893 0.11428,-0.0504 0.0629,0.0388 0.11431,0.0223 0.11431,-0.0368 0,-0.14084 0.89486,-0.36319 1.46172,-0.36319 0.46311,0 1.16702,0.28079 1.16702,0.46555 0,0.0584 0.0545,0.10591 0.12104,0.10591 0.0665,0 0.0893,-0.0514 0.0504,-0.11429 -0.0412,-0.0666 0.075,-0.11428 0.27899,-0.11428 0.19228,0 0.34963,0.0514 0.34963,0.11428 0,0.15042 0.86755,0.14739 1.15044,-0.005 0.12159,-0.065 0.22107,-0.17386 0.22107,-0.24174 0,-0.0702 -0.12738,-0.0399 -0.29565,0.0702 -0.42269,0.27697 -0.45104,0.15325 -0.0473,-0.20648 0.18863,-0.16807 0.34528,-0.26662 0.34812,-0.21898 0.003,0.0478 0.0729,-0.0678 0.15553,-0.25628 0.22818,-0.52027 0.0572,-0.73935 -0.5933,-0.76008 l -0.53888,-0.0171 0.45718,-0.0686 c 0.39317,-0.059 0.45717,-0.10856 0.45717,-0.35428 0,-0.40217 -0.0972,-0.51041 -0.61096,-0.67995 -0.43574,-0.14379 -0.47414,-0.13454 -1.13562,0.27376 -0.37657,0.2324 -0.76248,0.434 -0.85761,0.44797 -0.0951,0.0141 -0.26813,0.10023 -0.38449,0.1918 -0.19444,0.15299 -0.19881,0.15021 -0.0541,-0.0343 0.14769,-0.18827 0.10355,-0.19862 -0.70832,-0.16602 -0.6494,0.0261 -0.92464,0.088 -1.10113,0.24773 -0.12942,0.1171 -0.27356,0.17418 -0.32032,0.12679 -0.11376,-0.11526 0.77555,-0.86105 1.02934,-0.86322 0.24133,-0.002 0.23994,0.026 0.0285,-0.57315 -0.19404,-0.54996 -0.23,-1.66473 -0.0572,-1.77154 0.0629,-0.0388 0.12381,-0.44049 0.13544,-0.89252 0.0193,-0.75111 0.0246,-0.76777 0.0613,-0.19328 0.022,0.34574 0.10946,0.78291 0.19427,0.9715 0.19368,0.43067 0.44525,2.16344 0.35526,2.44695 -0.0541,0.17056 0.005,0.2237 0.30761,0.27194 0.34281,-0.0193 0.52845,0.01 0.73028,-0.0329 0.0685,0 0.35084,-0.15336 0.62747,-0.34079 0.83774,-0.56767 1.66913,-0.37706 2.00382,0.45939 0.12196,0.41436 0.20422,0.57249 0.27067,0.91473 0,0.52051 -0.415,1.29201 -0.83002,1.54304 0.24117,0.0313 -0.66712,0.35201 0.14194,0.71568 0.74567,0.57784 1.33148,1.23912 1.74883,1.97417 0.43147,0.75992 1.07406,1.52215 1.56487,1.85621 0.15542,0.10581 0.23256,0.19201 0.17143,0.19159 -0.20599,-0.002 -0.70879,-0.39556 -1.27473,-0.99931 -0.30936,-0.33003 -0.53555,-0.60004 -0.50264,-0.60004 0.0328,0 -0.0545,-0.08 -0.1942,-0.17793 -0.13971,-0.0979 -0.25401,-0.25214 -0.25401,-0.34287 0,-0.0908 -0.0385,-0.16528 -0.0857,-0.16567 -0.0471,-3.6e-4 -0.17332,-0.15472 -0.2804,-0.3429 -0.11765,-0.20674 -0.28814,-0.34215 -0.43078,-0.34215 -0.19934,0 -0.22453,0.0489 -0.16193,0.3143 l 0.0742,0.3143 -0.24788,-0.25715 c -0.26185,-0.27164 -0.58186,-0.34349 -0.58186,-0.13064 0,0.0695 -0.0746,0.098 -0.16563,0.063 -0.11089,-0.0425 -0.14453,-0.009 -0.10183,0.10269 0.043,0.11224 -0.0702,0.22223 -0.3487,0.33858 -0.22687,0.0948 -0.41062,0.21026 -0.40833,0.25656 0.005,0.11934 0.96897,0.71523 1.24042,0.7675 0.40937,0.0789 0.67467,0.27896 1.25604,0.94735 0.31564,0.36291 0.91909,0.94168 1.34099,1.28614 0.75352,0.61522 0.95286,0.81022 1.38749,1.35732 0.16935,0.21319 0.26218,0.24891 0.41889,0.16122 0.18396,-0.10291 0.18566,-0.12833 0.0196,-0.29428 -0.0999,-0.0999 -0.18162,-0.23672 -0.18162,-0.30407 0,-0.0674 -0.09,-0.12325 -0.20001,-0.12421 -0.15542,-0.002 -0.16554,-0.0235 -0.0453,-0.0998 0.19439,-0.12318 0.009,-0.51965 -0.32873,-0.69995 -0.28282,-0.15137 -0.28656,-0.35092 -0.0126,-0.66688 0.2929,-0.33772 0.35805,-0.31055 0.35805,0.14926 0,0.21743 0.09,0.57449 0.20001,0.79346 0.13859,0.37005 0.11747,0.48782 0.30713,0.85458 0.1549,0.29952 0.15179,0.3456 -0.0347,0.51432 -0.11262,0.10194 -0.22768,0.18533 -0.25569,0.18533 -0.028,0 -0.33254,-0.2853 -0.67676,-0.63399 z m -4.56898,-7.138 c 0,-0.0629 -0.0514,-0.11429 -0.11429,-0.11429 -0.0629,0 -0.1143,0.0514 -0.1143,0.11429 0,0.0629 0.0514,0.11431 0.1143,0.11431 0.0629,0 0.11429,-0.0514 0.11429,-0.11431 z m -2.34302,-4.68603 c -0.0429,-0.1352 -0.10376,-0.22011 -0.13516,-0.18866 -0.0314,0.0314 -0.022,0.16776 0.0209,0.30296 0.0429,0.13519 0.10377,0.22009 0.13517,0.18866 0.0314,-0.0315 0.022,-0.16776 -0.0209,-0.30296 z m -7.98268,8.41029 c -2.24408,-0.0912 -2.33596,-0.1265 -2.14247,-0.82334 0.0382,-1.07896 0.0896,-1.86363 0.0701,-3.04375 -0.023,-0.5186 -0.12268,-1.13303 -0.22145,-1.3654 -0.1129,-0.26564 -0.13751,-0.44848 -0.0662,-0.4925 0.0622,-0.0385 0.11328,0.01 0.11328,0.10818 0,0.14622 0.1795,0.18197 1.00006,0.19929 0.55003,0.0117 1.10294,0.0323 1.22866,0.0459 0.12572,0.0137 0.45574,0.0298 0.73339,0.0361 0.98496,0.022 0.35496,0.14337 -0.7325,0.14114 -0.60783,-0.002 -1.2239,0.0519 -1.36904,0.11799 -0.34392,0.15669 -0.51771,0.55489 -0.51771,1.18618 0,0.4823 0.14187,0.67668 0.26719,0.36608 0.0805,0.27056 0.0987,0.97388 0.0757,1.23542 0,0.31828 -0.0444,0.49358 -0.1143,0.45043 -0.0629,-0.0388 -0.11429,0.0383 -0.11429,0.17144 0,0.13315 0.0485,0.21213 0.10777,0.17549 0.0593,-0.0367 -0.0196,0.1614 -0.17544,0.44006 l -0.28318,0.50668 0.36443,0.18181 c 0.29765,0.14849 0.75381,0.17903 2.48987,0.16674 1.16899,-0.009 1.94543,-0.0498 1.72542,-0.0922 -0.37325,-0.0721 -0.35029,-0.0845 0.34287,-0.18507 0.72516,-0.10527 0.74292,-0.11607 0.74314,-0.45065 1.3e-4,-0.19818 -0.10759,-0.45712 -0.25537,-0.61377 -0.14058,-0.14902 -0.22427,-0.32167 -0.18596,-0.38363 0.0418,-0.0677 0.10888,-0.0507 0.1679,0.0424 0.0755,0.11934 0.0986,0.12132 0.10001,0.009 7.6e-4,-0.0806 0.0823,-0.33775 0.18064,-0.57146 0.16839,-0.39996 0.18828,-0.41226 0.33846,-0.20914 0.11179,0.1512 0.12649,0.27757 0.0491,0.42217 -0.13634,0.25474 -0.1714,0.98973 -0.0633,1.32826 0.0794,0.2491 0.0856,0.24775 0.57177,-0.12328 0.27027,-0.2063 0.73045,-0.44203 1.02263,-0.52383 0.30124,-0.0844 0.53122,-0.21654 0.53122,-0.30533 0,-0.0862 -0.0405,-0.15659 -0.0899,-0.15659 -0.0495,0 -0.0983,-0.11109 -0.10857,-0.24686 -0.0107,-0.13579 -0.0834,-0.28695 -0.16264,-0.33592 -0.1104,-0.0682 -0.0942,-0.14407 0.0691,-0.32459 0.11725,-0.12955 0.28528,-0.23557 0.3734,-0.23557 0.13208,0 0.12898,0.0446 -0.0177,0.25403 -0.19532,0.27886 -0.22658,0.43174 -0.0883,0.43174 0.0494,0 0.17858,-0.15051 0.28725,-0.33448 0.28621,-0.48453 1.22323,-1.02721 1.22323,-0.70845 0,0.055 -0.15248,0.13051 -0.33884,0.16778 -0.2279,0.0456 -0.4381,0.21775 -0.642,0.52589 -0.25831,0.39031 -0.29321,0.53886 -0.23589,1.00372 0.037,0.30009 0.0386,0.48101 0.004,0.40206 -0.0487,-0.10985 -0.14188,-0.0973 -0.39679,0.0532 -0.47422,0.28013 -0.45865,0.51248 0.0173,0.25776 0.15373,-0.0823 0.22108,-0.0815 0.22108,0.003 0,0.0663 -0.12632,0.17833 -0.2807,0.24867 -1.79438,0.94077 -4.29474,0.90446 -5.81574,0.84821 z m 5.38008,-0.93595 c -0.0379,-0.038 -0.13656,-0.0421 -0.21907,-0.009 -0.0912,0.0365 -0.0641,0.0636 0.0691,0.0691 0.12048,0.005 0.18798,-0.022 0.15,-0.06 z m -7.05523,-1.64535 c 0,-0.12572 -0.0514,-0.22859 -0.11431,-0.22859 -0.0629,0 -0.11429,0.10291 -0.11429,0.22859 0,0.12572 0.0514,0.22858 0.11429,0.22858 0.0629,0 0.11431,-0.1029 0.11431,-0.22858 z m 0,-0.45042 c 0,-0.0592 -0.0514,-0.13934 -0.11431,-0.17818 -0.0629,-0.0388 -0.11429,0.01 -0.11429,0.10754 0,0.098 0.0514,0.17818 0.11429,0.17818 0.0629,0 0.11431,-0.0484 0.11431,-0.10754 z m 1.80011,2.66059 c 0.0786,-0.0318 0.20716,-0.0318 0.28573,0 0.0786,0.0317 0.0143,0.0576 -0.14286,0.0576 -0.15715,0 -0.22145,-0.026 -0.14287,-0.0576 z m 7.39829,-1.46001 c -0.28328,-0.3714 -0.29824,-0.43868 -0.1676,-0.75409 0.17315,-0.41798 0.28069,-0.38083 0.12012,0.0415 -0.0949,0.24954 -0.0652,0.3549 0.18246,0.64929 0.16264,0.1933 0.26878,0.37837 0.23589,0.41128 -0.0329,0.0328 -0.19979,-0.1237 -0.37087,-0.34798 z m -4.02665,-1.24848 c -0.26529,-0.1314 -0.35468,-0.41604 -0.13063,-0.41604 0.0708,0 0.0958,-0.088 0.0569,-0.20002 -0.058,-0.16673 -0.0411,-0.16309 0.10205,0.0219 0.0944,0.12202 0.17173,0.1606 0.17173,0.0857 0,-0.0767 0.15831,-0.13614 0.36281,-0.13614 h 0.3628 l -0.24851,0.26453 c -0.13669,0.1455 -0.24852,0.32551 -0.24852,0.40003 0,0.15789 -0.0768,0.15432 -0.4286,-0.02 z m 1.4704,-0.45734 c -0.10333,-0.12451 -0.0269,-0.19463 0.38278,-0.35109 0.53019,-0.20249 1.08989,-0.74817 1.08989,-1.06261 0,-0.0991 -0.21306,-0.37693 -0.47345,-0.6173 -0.67343,-0.62172 -1.18619,-0.75191 -0.90703,-0.23029 0.0819,0.15293 0.085,0.25545 0.01,0.30227 -0.063,0.0389 -0.11973,0.23492 -0.126,0.43552 -0.01,0.29643 -0.0253,0.31864 -0.0857,0.11864 -0.0702,-0.23254 -0.10484,-0.21838 -0.62829,0.25715 -0.30466,0.27679 -0.48896,0.50324 -0.40955,0.50324 0.0794,0 0.10592,0.0385 0.0588,0.0855 -0.13803,0.13801 -0.39052,-0.30188 -0.33096,-0.5766 0.11158,-0.51471 0.31443,-0.77016 0.79713,-1.00382 0.80549,-0.38993 0.57165,-0.62622 -0.2712,-0.27405 -0.28396,0.11864 -0.45382,0.13683 -0.53351,0.0571 -0.0797,-0.0797 -0.046,-0.11745 0.10591,-0.11862 0.12258,-0.002 0.42859,-0.073 0.68004,-0.16012 0.44271,-0.15339 0.45919,-0.17774 0.52077,-0.76976 l 0.0636,-0.61137 0.0507,0.62092 c 0.0467,0.57112 0.0771,0.62795 0.38143,0.70885 0.27811,0.0739 0.37988,0.0353 0.6397,-0.24284 0.27266,-0.29187 0.62726,-0.92586 1.02351,-1.82982 0.12117,-0.27646 0.12304,-0.27473 0.0573,0.0534 -0.10408,0.51971 -0.57872,1.45047 -0.93439,1.8324 l -0.31931,0.34287 0.49393,0.48822 c 0.55492,0.54849 0.55994,0.73616 0.0359,1.3442 -0.30195,0.35035 -0.9798,0.85349 -1.14986,0.85349 -0.0507,0 -0.15047,-0.0701 -0.22151,-0.1556 z m 5.01594,-1.53544 c -2.3e-4,-0.31266 0.47662,-0.82413 0.76612,-0.82174 0.15547,0.002 0.13596,0.0363 -0.0805,0.14446 -0.15717,0.0784 -0.37566,0.32206 -0.48557,0.5412 -0.16897,0.3369 -0.19987,0.35791 -0.20002,0.13608 z m -8.17777,-0.0325 c -0.0411,-0.0664 -0.14497,-0.0939 -0.23088,-0.0608 -0.0859,0.0329 -0.18662,0.0107 -0.22377,-0.0494 -0.0371,-0.0601 0.0769,-0.11358 0.2535,-0.11882 0.17657,-0.005 0.43677,-0.0223 0.57822,-0.0381 0.32265,-0.0357 0.32096,-0.0206 -0.0226,0.2046 -0.18588,0.12178 -0.30484,0.14276 -0.35445,0.0626 z m 10.01531,-0.0575 c 0.005,-0.13316 0.0325,-0.16024 0.069,-0.0691 0.0329,0.0825 0.0289,0.18109 -0.009,0.21907 -0.0379,0.038 -0.0649,-0.0296 -0.06,-0.15 z m -13.71473,-0.54941 c 0.0975,-0.0913 4.77769,-0.14094 4.72152,-0.05 -0.0322,0.0521 -1.11838,0.0947 -2.41382,0.0947 -1.29542,0 -2.33389,-0.0201 -2.3077,-0.0446 z m 9.02866,-3.06589 c -0.005,-0.10779 0.10667,-0.25206 0.24815,-0.3206 0.21813,-0.10569 0.22961,-0.10194 0.0756,0.0246 -0.0998,0.0821 -0.21147,0.22632 -0.24812,0.32061 -0.0541,0.13898 -0.0684,0.13433 -0.0757,-0.0245 z"
       id="path22639"
       sodipodi:nodetypes="cssccsssssssssssssssssssssscsssssscsssssssssscssssssccsccccsscsssscssscssssssssssssscssssccssccsssssssssscccsssssccssccsssscsssssssscssssssssssssssssssscsssccsssssssssssssssssssssssssssssssscssssssssssssssssssscsscsssssscssssssssssssssssssssssssssssssss" />
    <path
       style="fill:#ffffff;fill-opacity:1;stroke-width:0.11814;stroke:#002255"
       d="m 159.73991,163.15641 c -1.96083,-1.9863 -3.08947,-3.02093 -3.55298,-3.25706 -0.28598,-0.14569 -0.73929,-0.4191 -1.00733,-0.60757 -0.43108,-0.30311 -0.55046,-0.33322 -1.03373,-0.26074 -0.28961,0.17245 -0.64067,0.30941 -1.10314,-0.32512 -0.23762,-0.24335 -0.39992,-0.47457 -0.36067,-0.51381 0.0392,-0.0393 0.1307,0.0395 0.20322,0.17504 0.0725,0.13553 0.20975,0.2464 0.30493,0.2464 0.18133,0 0.24025,-0.1881 0.0802,-0.25596 -0.14101,-0.0598 -0.61596,-0.76661 -0.61596,-0.91668 0,-0.0725 0.1342,-0.19311 0.29824,-0.26786 0.30106,-0.13717 0.76502,-0.76667 0.76502,-1.03799 0,-0.10388 -0.12106,-0.12417 -0.4135,-0.0692 -0.4285,0.0804 -0.5205,-0.0137 -0.26582,-0.27181 0.11908,-0.12067 -0.0211,-0.1384 -0.72366,-0.0915 -0.47924,0.0321 -0.92847,0.11529 -0.99828,0.18511 -0.1594,0.15939 -0.31596,0.16375 -0.31596,0.009 0,-0.0649 0.0797,-0.11814 0.17721,-0.11814 0.0974,0 0.1772,-0.0563 0.1772,-0.12512 0,-0.0689 0.0532,-0.0923 0.11815,-0.0521 0.065,0.04 0.11813,0.0231 0.11813,-0.0381 0,-0.14558 0.92498,-0.37541 1.51092,-0.37541 0.4787,0 1.2063,0.29024 1.2063,0.48122 0,0.0603 0.0563,0.10947 0.12511,0.10947 0.0689,0 0.0923,-0.0531 0.052,-0.11813 -0.0426,-0.0689 0.0775,-0.11814 0.28837,-0.11814 0.19878,0 0.3614,0.0531 0.3614,0.11814 0,0.15547 0.89674,0.15234 1.18916,-0.005 0.12569,-0.0673 0.22852,-0.1797 0.22852,-0.24985 0,-0.0725 -0.13167,-0.0413 -0.3056,0.0726 -0.43693,0.2863 -0.46623,0.15841 -0.0489,-0.21344 0.19498,-0.17372 0.35691,-0.27558 0.35983,-0.22633 0.003,0.0494 0.0752,-0.07 0.16077,-0.26491 0.23585,-0.53778 0.059,-0.76423 -0.61327,-0.78565 l -0.557,-0.0177 0.47254,-0.0709 c 0.40642,-0.0609 0.47257,-0.11221 0.47257,-0.36621 0,-0.4157 -0.10055,-0.52759 -0.63152,-0.70283 -0.4504,-0.14863 -0.4901,-0.13906 -1.17385,0.28298 -0.38923,0.24021 -0.78812,0.4486 -0.88645,0.46304 -0.0983,0.0145 -0.27716,0.10365 -0.39743,0.19826 -0.20098,0.15812 -0.2055,0.15526 -0.0558,-0.0355 0.15266,-0.19461 0.10699,-0.2053 -0.73216,-0.17162 -0.67124,0.0269 -0.95576,0.091 -1.13817,0.25606 -0.13379,0.12105 -0.28278,0.18005 -0.3311,0.13107 -0.1176,-0.11915 0.80165,-0.89002 1.06397,-0.89226 0.24945,-0.002 0.24801,0.0268 0.0296,-0.59245 -0.20056,-0.56846 -0.23774,-1.72073 -0.059,-1.83115 0.0649,-0.0401 0.12797,-0.45532 0.13999,-0.92255 0.0201,-0.7764 0.0254,-0.7936 0.0633,-0.19978 0.0228,0.35736 0.11316,0.80925 0.20081,1.00417 0.20019,0.44518 0.46023,2.23626 0.36722,2.52931 -0.056,0.17628 0.005,0.23122 0.31795,0.28107 0.35436,-0.0201 0.54623,0.0107 0.75487,-0.0341 0.0708,0 0.36264,-0.15851 0.64856,-0.35226 0.86594,-0.58676 1.72531,-0.38974 2.07126,0.47486 0.12608,0.42829 0.2111,0.59175 0.27978,0.94549 0,0.53804 -0.42897,1.33551 -0.85795,1.59497 0.2493,0.0324 -0.68957,0.36386 0.14671,0.73977 0.77076,0.59728 1.37628,1.28081 1.8077,2.04061 0.44597,0.78548 1.11019,1.57335 1.6175,1.91866 0.16066,0.10936 0.24041,0.19848 0.17721,0.19805 -0.2129,-0.002 -0.73264,-0.40888 -1.31763,-1.03295 -0.31977,-0.34112 -0.55356,-0.62023 -0.51954,-0.62023 0.034,0 -0.0563,-0.0827 -0.20074,-0.18391 -0.14441,-0.10119 -0.26256,-0.26063 -0.26256,-0.35441 0,-0.0938 -0.0399,-0.17085 -0.0886,-0.17125 -0.0487,-3.7e-4 -0.17917,-0.15991 -0.28986,-0.35444 -0.1216,-0.21369 -0.29783,-0.35366 -0.44528,-0.35366 -0.20603,0 -0.23208,0.0505 -0.16735,0.32487 l 0.0766,0.32489 -0.25621,-0.2658 c -0.27067,-0.28079 -0.60144,-0.35506 -0.60144,-0.13505 0,0.0719 -0.077,0.10119 -0.17119,0.0651 -0.11465,-0.044 -0.14941,-0.009 -0.10527,0.10612 0.0444,0.11602 -0.0725,0.22971 -0.36044,0.34999 -0.2345,0.098 -0.42442,0.21733 -0.42206,0.26518 0.005,0.12336 1.00157,0.73931 1.28217,0.79334 0.42314,0.0815 0.69738,0.28834 1.29828,0.97922 0.32628,0.37511 0.95003,0.97336 1.38614,1.32941 0.77887,0.63593 0.98491,0.83748 1.43417,1.40301 0.17505,0.22036 0.271,0.25728 0.43299,0.16664 0.19015,-0.10645 0.19191,-0.13265 0.0203,-0.30419 -0.10323,-0.10323 -0.18773,-0.24468 -0.18773,-0.3143 0,-0.0696 -0.093,-0.1274 -0.20674,-0.12838 -0.16063,-0.002 -0.17109,-0.0243 -0.0469,-0.10313 0.20091,-0.12732 0.009,-0.53711 -0.3398,-0.72349 -0.29233,-0.15646 -0.2962,-0.36273 -0.013,-0.68931 0.30275,-0.34909 0.37009,-0.32101 0.37009,0.15428 0,0.22474 0.093,0.59381 0.20675,0.82016 0.14325,0.38251 0.12141,0.50423 0.31746,0.88333 0.16011,0.3096 0.1569,0.35725 -0.0358,0.53163 -0.11641,0.10538 -0.23534,0.19156 -0.26429,0.19156 -0.0289,0 -0.34374,-0.2949 -0.69953,-0.65532 z m -4.72272,-7.37819 c 0,-0.0649 -0.0532,-0.11813 -0.11814,-0.11813 -0.0649,0 -0.11814,0.0531 -0.11814,0.11813 0,0.065 0.0531,0.11816 0.11814,0.11816 0.0649,0 0.11814,-0.0531 0.11814,-0.11816 z m -2.42186,-4.84372 c -0.0443,-0.13975 -0.1072,-0.22751 -0.13971,-0.19502 -0.0325,0.0325 -0.0228,0.17342 0.0216,0.31316 0.0443,0.13975 0.1072,0.22751 0.1397,0.19501 0.0325,-0.0325 0.0228,-0.17339 -0.0216,-0.31315 z m -8.25131,8.69331 c -2.31959,-0.0943 -2.41456,-0.13077 -2.21456,-0.85106 0.0395,-1.11527 0.0926,-1.92632 0.0724,-3.14616 -0.0238,-0.53606 -0.12681,-1.17117 -0.2289,-1.41136 -0.1167,-0.27457 -0.14214,-0.46356 -0.0686,-0.50906 0.0644,-0.0398 0.11708,0.0107 0.11708,0.11181 0,0.15113 0.18556,0.1881 1.03373,0.206 0.56854,0.012 1.14004,0.0334 1.27,0.0474 0.12995,0.014 0.47108,0.0308 0.75806,0.0372 1.01811,0.0228 0.3669,0.14819 -0.75713,0.14588 -0.62828,-0.002 -1.26509,0.0537 -1.41512,0.12195 -0.35547,0.16197 -0.53512,0.57357 -0.53512,1.22611 0,0.49853 0.14664,0.69944 0.27619,0.3784 0.0833,0.27966 0.10205,1.00665 0.0782,1.27699 0,0.32899 -0.046,0.51019 -0.11814,0.46559 -0.065,-0.0401 -0.11814,0.0396 -0.11814,0.17721 0,0.13763 0.0501,0.21925 0.11139,0.18139 0.0613,-0.0379 -0.0203,0.16683 -0.18133,0.45487 l -0.29272,0.52372 0.37669,0.18792 c 0.30767,0.15349 0.77918,0.18507 2.57365,0.17236 1.20834,-0.009 2.01091,-0.0514 1.78348,-0.0953 -0.38581,-0.0745 -0.36207,-0.0872 0.35442,-0.19129 0.74956,-0.10885 0.76792,-0.11999 0.76815,-0.46583 1.2e-4,-0.20484 -0.11123,-0.47249 -0.26397,-0.63441 -0.14532,-0.15403 -0.23181,-0.3325 -0.19221,-0.39655 0.0432,-0.07 0.11253,-0.0525 0.17354,0.0438 0.0781,0.12335 0.10194,0.1254 0.10334,0.009 7.5e-4,-0.0833 0.085,-0.34912 0.18671,-0.59069 0.17405,-0.41341 0.19462,-0.42613 0.34985,-0.21616 0.11555,0.15628 0.13076,0.28691 0.0508,0.43635 -0.14093,0.26332 -0.17715,1.02304 -0.0656,1.37297 0.0822,0.25748 0.0885,0.25609 0.59101,-0.12743 0.27937,-0.21324 0.75505,-0.45691 1.05704,-0.54147 0.31138,-0.0871 0.54912,-0.22381 0.54912,-0.31559 0,-0.0891 -0.0419,-0.16186 -0.093,-0.16186 -0.0512,0 -0.10162,-0.11483 -0.11221,-0.25518 -0.0107,-0.14035 -0.0863,-0.2966 -0.16813,-0.34721 -0.11409,-0.0705 -0.0974,-0.14892 0.0715,-0.33551 0.1212,-0.13392 0.29487,-0.2435 0.38595,-0.2435 0.13654,0 0.13333,0.0461 -0.0183,0.26258 -0.20188,0.28825 -0.2342,0.44627 -0.0912,0.44627 0.051,0 0.18458,-0.15559 0.29691,-0.34574 0.29584,-0.50084 1.26438,-1.06178 1.26438,-0.73229 0,0.0569 -0.1576,0.1349 -0.35023,0.17342 -0.23557,0.0471 -0.45283,0.22509 -0.66361,0.54358 -0.267,0.40346 -0.30308,0.55701 -0.24382,1.03752 0.0382,0.31018 0.0399,0.4972 0.004,0.41557 -0.0504,-0.11354 -0.14666,-0.10065 -0.41013,0.055 -0.4902,0.28956 -0.47411,0.52972 0.0179,0.26643 0.15892,-0.0851 0.22852,-0.0842 0.22852,0.003 0,0.0686 -0.13058,0.18433 -0.29015,0.25703 -1.85476,0.97244 -4.43925,0.93491 -6.01143,0.87676 z m 5.56114,-0.96745 c -0.0392,-0.0393 -0.14116,-0.0435 -0.22644,-0.01 -0.0942,0.0378 -0.0662,0.0657 0.0714,0.0714 0.12454,0.005 0.19431,-0.0228 0.15506,-0.062 z m -7.29267,-1.70072 c 0,-0.12996 -0.0532,-0.23627 -0.11813,-0.23627 -0.065,0 -0.11816,0.10634 -0.11816,0.23627 0,0.12995 0.0532,0.23627 0.11816,0.23627 0.0649,0 0.11813,-0.10634 0.11813,-0.23627 z m 0,-0.46558 c 0,-0.0612 -0.0532,-0.14402 -0.11813,-0.18419 -0.065,-0.0401 -0.11816,0.01 -0.11816,0.11117 0,0.1013 0.0532,0.18418 0.11816,0.18418 0.0649,0 0.11813,-0.0501 0.11813,-0.11116 z m 1.86071,2.75013 c 0.0812,-0.0327 0.21412,-0.0327 0.29535,0 0.0812,0.0327 0.0148,0.0597 -0.14768,0.0597 -0.16245,0 -0.2289,-0.0268 -0.14767,-0.0597 z m 7.64724,-1.50915 c -0.29283,-0.3839 -0.30828,-0.45344 -0.17325,-0.77946 0.17897,-0.43205 0.29013,-0.39366 0.12417,0.0429 -0.0981,0.25792 -0.0675,0.36683 0.1886,0.67115 0.16811,0.19979 0.27783,0.39108 0.24381,0.42509 -0.034,0.0339 -0.2065,-0.12784 -0.38333,-0.35968 z m -4.16215,-1.29049 c -0.27422,-0.13582 -0.36661,-0.43005 -0.13502,-0.43005 0.0732,0 0.099,-0.091 0.0587,-0.20674 -0.06,-0.17234 -0.0425,-0.16858 0.10548,0.0226 0.0977,0.12612 0.1775,0.166 0.1775,0.0886 0,-0.0793 0.16365,-0.14072 0.37501,-0.14072 h 0.37501 l -0.25687,0.27344 c -0.14128,0.15037 -0.25687,0.33645 -0.25687,0.41348 0,0.1632 -0.0794,0.15951 -0.44303,-0.0206 z m 1.51988,-0.47273 c -0.10677,-0.12871 -0.0278,-0.20119 0.39566,-0.36291 0.54802,-0.20929 1.12656,-0.77335 1.12656,-1.09837 0,-0.10247 -0.22023,-0.38959 -0.48938,-0.63806 -0.69609,-0.64264 -1.2261,-0.77721 -0.93755,-0.23805 0.0845,0.15808 0.0879,0.26405 0.01,0.31244 -0.0651,0.0402 -0.12375,0.24284 -0.13022,0.45019 -0.01,0.3064 -0.0262,0.32935 -0.0886,0.12263 -0.0725,-0.24037 -0.10834,-0.22573 -0.64942,0.26579 -0.31492,0.28611 -0.50542,0.52018 -0.42333,0.52018 0.0821,0 0.10946,0.0398 0.0608,0.0884 -0.14267,0.14266 -0.40366,-0.31203 -0.3421,-0.59601 0.11533,-0.532 0.32502,-0.79606 0.82396,-1.03759 0.83259,-0.40304 0.59088,-0.64729 -0.28032,-0.28328 -0.29352,0.12263 -0.46909,0.14144 -0.55147,0.059 -0.0824,-0.0824 -0.0474,-0.1214 0.10952,-0.12263 0.12671,-0.002 0.44302,-0.0754 0.70293,-0.1655 0.4576,-0.15855 0.47465,-0.18372 0.53828,-0.79566 l 0.0658,-0.63194 0.0524,0.64182 c 0.0483,0.59032 0.0798,0.64909 0.39427,0.73269 0.28747,0.0764 0.39267,0.0365 0.66123,-0.251 0.28182,-0.3017 0.64838,-0.95703 1.05794,-1.89141 0.12525,-0.28576 0.12718,-0.28395 0.0592,0.0554 -0.10761,0.5372 -0.5982,1.49929 -0.96585,1.89406 l -0.33005,0.35442 0.51056,0.50464 c 0.5736,0.56695 0.57877,0.76093 0.0371,1.38944 -0.31211,0.36214 -1.01276,0.8822 -1.18855,0.8822 -0.0525,0 -0.15553,-0.0723 -0.22896,-0.16082 z m 5.18473,-1.58711 c -2.5e-4,-0.32318 0.49265,-0.85186 0.79188,-0.8494 0.16072,0.002 0.14055,0.0376 -0.0833,0.14932 -0.16244,0.0811 -0.3883,0.33292 -0.50191,0.55943 -0.17465,0.34823 -0.2066,0.36995 -0.20675,0.14065 z m -8.45296,-0.0336 c -0.0424,-0.0687 -0.14984,-0.097 -0.23865,-0.0629 -0.0889,0.034 -0.1929,0.0111 -0.23131,-0.0511 -0.0384,-0.0621 0.0795,-0.11743 0.26204,-0.12283 0.18251,-0.005 0.45147,-0.0232 0.59766,-0.0394 0.33352,-0.0369 0.33178,-0.0212 -0.0233,0.21149 -0.19212,0.12589 -0.31509,0.14756 -0.36637,0.0646 z m 10.35233,-0.0596 c 0.005,-0.13763 0.0337,-0.16561 0.0713,-0.0714 0.0341,0.0853 0.0299,0.18719 -0.01,0.22644 -0.0392,0.0393 -0.0672,-0.0306 -0.062,-0.15506 z m -14.17623,-0.56787 c 0.10076,-0.0944 4.93846,-0.14568 4.88038,-0.0517 -0.0333,0.0538 -1.15601,0.0979 -2.49504,0.0979 -1.33901,0 -2.41241,-0.0207 -2.38534,-0.0461 z m 9.33247,-3.16907 c -0.005,-0.11142 0.11029,-0.26055 0.2565,-0.33139 0.22548,-0.10927 0.23735,-0.10538 0.0782,0.0254 -0.10312,0.0848 -0.21859,0.23394 -0.25648,0.33141 -0.0558,0.14364 -0.0707,0.13884 -0.0782,-0.0253 z"
       id="path8209"
       sodipodi:nodetypes="cssccsssssssssssssssssssssscsssssscsssssssssscssssssccsccccsscsssscssscssssssssssssscssssccssccsssssssssscccsssssccssccsssscsssssssscssssssssssssssssssscsssccsssssssssssssssssssssssssssssssscssssssssssssssssssscsscsssssscssssssssssssssssssssssssssssssss" />
  </g>
</svg>
