<?xml version="1.0" encoding="UTF-8" standalone="no"?>
<!-- Created with Inkscape (http://www.inkscape.org/) -->

<svg
   width="99.999947"
   height="99.999947"
   viewBox="0 0 26.45832 26.458322"
   version="1.1"
   id="svg1580"
   inkscape:version="1.2.2 (b0a8486541, 2022-12-01)"
   sodipodi:docname="img_star_empty.svg"
   xmlns:inkscape="http://www.inkscape.org/namespaces/inkscape"
   xmlns:sodipodi="http://sodipodi.sourceforge.net/DTD/sodipodi-0.dtd"
   xmlns="http://www.w3.org/2000/svg"
   xmlns:svg="http://www.w3.org/2000/svg">
  <sodipodi:namedview
     id="namedview1582"
     pagecolor="#505050"
     bordercolor="#eeeeee"
     borderopacity="1"
     inkscape:showpageshadow="0"
     inkscape:pageopacity="0"
     inkscape:pagecheckerboard="0"
     inkscape:deskcolor="#505050"
     inkscape:document-units="mm"
     showgrid="false"
     inkscape:zoom="4.2425258"
     inkscape:cx="55.155822"
     inkscape:cy="47.613146"
     inkscape:window-width="1364"
     inkscape:window-height="751"
     inkscape:window-x="0"
     inkscape:window-y="15"
     inkscape:window-maximized="1"
     inkscape:current-layer="g31364" />
  <defs
     id="defs1577">
    <mask
       maskUnits="userSpaceOnUse"
       id="mask19554-6">
      <path
         id="path19556-2"
         style="fill:#ffffff;stroke-width:3.27903;stroke-linejoin:round"
         d="m -98.692457,1452.8789 c 8e-6,35.6865 -20.759563,66.3255 -48.481013,79.5437 -21.70802,-0.1531 -39.4643,-0.097 -61.90096,-0.097 -28.55076,-12.7981 -47.75637,-43.0945 -47.75637,-79.4472 0,-47.7719 36.1402,-86.4986 79.06918,-86.4986 42.92897,0 79.069163,38.7267 79.069163,86.4986 z"
         sodipodi:nodetypes="sccsss" />
    </mask>
  </defs>
  <g
     inkscape:label="Слой 1"
     inkscape:groupmode="layer"
     id="layer1"
     transform="translate(-138.99242,-143.95303)">
    <g
       id="g22103"
       transform="matrix(0.81509645,0,0,0.81509645,131.314,-269.73947)">
      <g
         id="g31364"
         transform="matrix(1.2268487,0,0,1.2268487,-46.689416,-2687.3273)">
        <path
           style="fill:none;stroke:#1a1a1a;stroke-width:1.83398"
           d="m 50.737186,2628.9831 c -0.212222,-0.2117 -0.254476,-0.3728 -0.175064,-0.6678 0.0374,-0.1393 0.283567,-0.9076 0.547135,-1.7085 0.26355,-0.8009 0.713072,-2.17 0.998912,-3.0424 0.285841,-0.8724 0.649242,-1.9802 0.80757,-2.4617 0.158382,-0.4818 0.267674,-0.8941 0.243018,-0.9162 -0.02475,-0.022 -1.469367,-1.1729 -3.210461,-2.5567 -1.741093,-1.384 -3.197922,-2.5424 -3.237389,-2.5743 -0.04308,-0.035 -0.07186,-0.1576 -0.07186,-0.3072 0,-0.215 0.0231,-0.2702 0.165349,-0.3974 0.09092,-0.081 0.22553,-0.154 0.299039,-0.1614 0.07351,0 1.897661,-0.018 4.053685,-0.018 h 3.920012 l 0.309562,-0.754 c 0.170298,-0.4148 0.434599,-1.0584 0.587464,-1.4302 0.152884,-0.3719 0.781502,-1.9028 1.396996,-3.4021 0.772538,-1.8819 1.159623,-2.7636 1.249941,-2.8474 0.181664,-0.1686 0.497751,-0.1668 0.682275,0 0.09807,0.092 0.543433,1.1131 1.591821,3.6534 0.800603,1.9401 1.566725,3.7965 1.70245,4.1253 l 0.246814,0.5982 4.032787,0.026 c 3.440556,0.022 4.04736,0.037 4.131794,0.1026 0.241626,0.1866 0.280983,0.2577 0.27981,0.5063 l -8.07e-4,0.2493 -1.077956,0.8579 c -0.592873,0.4721 -2.060884,1.6387 -3.262229,2.593 -1.201345,0.9541 -2.192539,1.7426 -2.202658,1.7519 -0.011,0.018 0.07607,0.3054 0.191746,0.6578 0.548144,1.6701 2.103357,6.4337 2.293141,7.024 0.198419,0.6168 0.208245,0.6748 0.141335,0.832 -0.108338,0.2545 -0.311046,0.4031 -0.54961,0.4031 -0.111822,0 -0.211104,-0.02 -0.220636,-0.044 -0.0092,-0.024 -0.380083,-0.238 -0.823445,-0.4748 -0.443343,-0.2369 -1.297548,-0.6941 -1.898229,-1.016 -0.600664,-0.3217 -1.951464,-1.0448 -3.00174,-1.6071 l -1.909614,-1.0219 -1.522803,0.815 c -0.83756,0.4484 -2.028749,1.0788 -2.640961,1.4124 -2.964821,1.6157 -3.439701,1.872 -3.475752,1.8933 -0.02212,0.013 -0.114938,0.042 -0.234018,0.04 -0.153112,0 -0.288032,-0.096 -0.357424,-0.1324 z"
           id="path32323"
           sodipodi:nodetypes="cssssssssscscsssscsscscscsscsssssssscssscc" />
      </g>
    </g>
  </g>
</svg>
