<?xml version="1.0" encoding="UTF-8" standalone="no"?>
<!-- Created with Inkscape (http://www.inkscape.org/) -->

<svg
   width="99.999947"
   height="99.999947"
   viewBox="0 0 26.45832 26.458322"
   version="1.1"
   id="svg1580"
   inkscape:version="1.2.2 (b0a8486541, 2022-12-01)"
   sodipodi:docname="img_arrows.svg"
   xmlns:inkscape="http://www.inkscape.org/namespaces/inkscape"
   xmlns:sodipodi="http://sodipodi.sourceforge.net/DTD/sodipodi-0.dtd"
   xmlns="http://www.w3.org/2000/svg"
   xmlns:svg="http://www.w3.org/2000/svg">
  <sodipodi:namedview
     id="namedview1582"
     pagecolor="#505050"
     bordercolor="#eeeeee"
     borderopacity="1"
     inkscape:showpageshadow="0"
     inkscape:pageopacity="0"
     inkscape:pagecheckerboard="0"
     inkscape:deskcolor="#505050"
     inkscape:document-units="mm"
     showgrid="false"
     inkscape:zoom="2.9248554"
     inkscape:cx="39.66008"
     inkscape:cy="52.310278"
     inkscape:window-width="1364"
     inkscape:window-height="751"
     inkscape:window-x="0"
     inkscape:window-y="15"
     inkscape:window-maximized="1"
     inkscape:current-layer="g22103" />
  <defs
     id="defs1577" />
  <g
     inkscape:label="Слой 1"
     inkscape:groupmode="layer"
     id="layer1"
     transform="translate(-138.99242,-143.95303)">
    <g
       id="g22103"
       transform="matrix(0.81509645,0,0,0.81509645,131.314,-269.73947)">
      <path
         style="fill:#b3b3b3;stroke-width:0.0502569"
         d="m 27.320251,524.36705 c 0.105855,0.33106 0.298466,0.61176 0.584244,0.85147 0.110684,0.093 1.407627,1.25435 2.882062,2.58114 1.474444,1.32678 2.780325,2.46388 2.901918,2.52691 1.069595,0.55429 2.408076,-0.19016 2.517812,-1.40041 0.03691,-0.40623 -0.09039,-0.8607 -0.330359,-1.17992 -0.102646,-0.13648 -0.68991,-0.66653 -1.30516,-1.17788 l -1.118617,-0.92977 3.481804,-0.0251 3.481791,-0.0252 0.30154,-0.14075 c 1.065763,-0.4975 1.388248,-1.80261 0.669619,-2.70995 -0.160162,-0.20221 -0.555383,-0.48544 -0.79526,-0.56987 -0.06902,-0.0243 -1.714867,-0.0563 -3.657248,-0.0708 l -3.531633,-0.0266 1.107542,-0.92162 c 0.609157,-0.5069 1.163023,-0.99437 1.230856,-1.0833 0.253756,-0.33267 0.348828,-0.62806 0.349599,-1.08589 0,-0.51988 -0.141896,-0.87613 -0.490901,-1.22513 -0.272679,-0.2727 -0.515412,-0.40181 -0.907561,-0.48274 -0.619347,-0.12784 -1.119792,0.0457 -1.696993,0.58851 -0.203166,0.19108 -1.492705,1.35638 -2.86563,2.58959 -2.640333,2.37161 -2.708068,2.44311 -2.838028,2.99524 -0.08816,0.3745 -0.08189,0.57646 0.02863,0.92203 z"
         id="path9688"
         sodipodi:nodetypes="ssssssscccsssscsscssssss" />
      <path
         d="m 9.5586397,524.22115 c 0.06107,0.30073 0.1777533,0.55521 0.3601031,0.78547 0.1601652,0.20222 0.5554092,0.48546 0.7952572,0.56987 0.06909,0.0243 1.714887,0.0563 3.657277,0.0708 l 3.531611,0.0266 -1.107533,0.92162 c -0.609163,0.50692 -1.163031,0.9944 -1.230863,1.08331 -0.253731,0.33268 -0.348819,0.62807 -0.349599,1.08588 0,0.5199 0.141891,0.87614 0.490903,1.22515 0.272689,0.27271 0.515404,0.40181 0.907552,0.48274 0.626525,0.12932 1.10905,-0.0417 1.718079,-0.60833 0.21922,-0.20403 1.489934,-1.35072 2.823768,-2.5482 1.333815,-1.1975 2.478918,-2.24908 2.544619,-2.33689 0.196331,-0.26237 0.278047,-0.4609 0.341072,-0.82857 0.05193,-0.30268 0.04797,-0.39259 -0.02986,-0.68013 -0.100525,-0.37139 -0.307223,-0.69203 -0.608576,-0.94412 -0.111379,-0.0932 -1.408881,-1.25497 -2.883333,-2.58175 -1.474453,-1.32679 -2.780309,-2.4639 -2.901912,-2.52692 -1.069597,-0.55428 -2.408087,0.19018 -2.517819,1.40041 -0.03691,0.40708 0.0904,0.86094 0.330985,1.17993 0.102933,0.13647 0.690138,0.66652 1.304904,1.17788 l 1.117768,0.92976 -3.481557,0.0252 -3.481557,0.0251 -0.307089,0.14193 c -0.7331054,0.33879 -1.1767467,1.17192 -1.0242013,1.92329 z"
         style="fill:#b3b3b3;stroke-width:0.0502569"
         id="path9698" />
    </g>
  </g>
</svg>
