<?xml version="1.0" encoding="UTF-8" standalone="no"?>
<!-- Created with Inkscape (http://www.inkscape.org/) -->

<svg
   width="100"
   height="100"
   viewBox="0 0 26.458334 26.458334"
   version="1.1"
   id="svg1580"
   inkscape:version="1.2.2 (b0a8486541, 2022-12-01)"
   sodipodi:docname="img_medical_pin.svg"
   xmlns:inkscape="http://www.inkscape.org/namespaces/inkscape"
   xmlns:sodipodi="http://sodipodi.sourceforge.net/DTD/sodipodi-0.dtd"
   xmlns="http://www.w3.org/2000/svg"
   xmlns:svg="http://www.w3.org/2000/svg">
  <sodipodi:namedview
     id="namedview1582"
     pagecolor="#505050"
     bordercolor="#eeeeee"
     borderopacity="1"
     inkscape:showpageshadow="0"
     inkscape:pageopacity="0"
     inkscape:pagecheckerboard="0"
     inkscape:deskcolor="#505050"
     inkscape:document-units="mm"
     showgrid="false"
     inkscape:zoom="2.8669452"
     inkscape:cx="25.462642"
     inkscape:cy="37.670758"
     inkscape:window-width="1364"
     inkscape:window-height="751"
     inkscape:window-x="0"
     inkscape:window-y="15"
     inkscape:window-maximized="1"
     inkscape:current-layer="layer1" />
  <defs
     id="defs1577" />
  <g
     inkscape:label="Слой 1"
     inkscape:groupmode="layer"
     id="layer1"
     transform="translate(-138.99241,-143.95304)">
    <g
       id="g2718"
       transform="matrix(0.70896058,0,0,0.70896058,48.25895,41.889718)">
      <path
         style="fill:#b0bec5;fill-opacity:1;stroke-width:0.0729178"
         d="m 142.11706,170.10298 c 0,-0.0151 0.0574,-0.0726 0.12761,-0.12761 0.11565,-0.0907 0.11823,-0.0881 0.0275,0.0275 -0.0953,0.12147 -0.15514,0.16009 -0.15514,0.10008 z m 10.60261,-1.59489 -0.13891,-0.16407 0.16407,0.13891 c 0.15418,0.13054 0.19726,0.18922 0.1389,0.18922 -0.0138,0 -0.0877,-0.0738 -0.16406,-0.16406 z m -9.43592,-7.51983 c 0,-0.0151 0.0574,-0.0726 0.1276,-0.12761 0.11565,-0.0907 0.11823,-0.0881 0.0275,0.0275 -0.0953,0.12146 -0.15513,0.16009 -0.15513,0.10008 z m -4.37507,-1.75003 c 0,-0.0151 0.0574,-0.0726 0.12761,-0.12761 0.11565,-0.0907 0.11823,-0.0881 0.0275,0.0275 -0.0953,0.12146 -0.15514,0.16008 -0.15514,0.10007 z m 3.17192,-2.97205 c -3.45392,-0.17052 -7.4748,-0.607 -11.04424,-1.19889 -1.60258,-0.26574 -1.90021,-0.363 -2.03828,-0.66604 -0.23629,-0.5186 0.0458,-0.96562 0.70069,-1.11039 1.71894,-0.38 2.93756,-1.00888 4.49263,-2.31846 0.83221,-0.70083 1.44738,-1.11864 2.20162,-1.4953 1.08182,-0.54025 2.4237,-0.89427 3.099,-0.8176 0.61339,0.0696 1.93841,0.42759 2.78017,0.75105 1.1935,0.45863 1.23031,0.47573 1.23031,0.57167 0,0.05 0.22949,0.32037 0.50999,0.60086 0.49657,0.49658 1.22219,0.92971 1.76869,1.05576 l 0.20052,0.0463 v 2.33198 2.33198 l -1.33075,-0.0108 c -0.73191,-0.006 -1.88857,-0.0384 -2.57035,-0.072 z m 5.50529,-2.24911 v -2.33198 l 0.20053,-0.048 c 0.71821,-0.17197 1.65823,-0.80786 2.1269,-1.43877 0.20286,-0.27309 0.35218,-0.37849 0.80209,-0.56614 1.12872,-0.47076 2.52746,-0.87528 3.36017,-0.97175 0.67396,-0.0781 2.01495,0.27532 3.099,0.81668 0.75424,0.37666 1.3694,0.79447 2.20161,1.4953 1.55507,1.30958 2.7737,1.93846 4.49264,2.31846 0.50353,0.11131 0.77982,0.37954 0.77982,0.75704 0,0.24501 -0.20219,0.57102 -0.42963,0.69274 -0.26388,0.14123 -4.31581,0.75841 -6.93506,1.05633 -2.56837,0.29214 -6.64701,0.55208 -8.66237,0.55208 h -1.0357 z"
         id="path2730" />
      <path
         style="fill:#b9b9b9;fill-opacity:1;stroke-width:0.0729178"
         d="m 150.66266,180.44837 c 0.001,-0.12031 0.0178,-0.1607 0.0363,-0.0898 0.0185,0.071 0.0173,0.16939 -0.003,0.21876 -0.02,0.0494 -0.0351,-0.009 -0.0336,-0.129 z m -4.64884,-1.93232 c 0,-1.14298 0.0101,-1.61057 0.0224,-1.03908 0.0123,0.5715 0.0123,1.50667 0,2.07816 -0.0123,0.57149 -0.0224,0.10391 -0.0224,-1.03908 z m 1.53077,0.25521 c -4e-5,-1.00262 0.0102,-1.42289 0.0228,-0.93394 0.0126,0.48895 0.0126,1.30927 7e-5,1.82294 -0.0125,0.51367 -0.0228,0.11362 -0.0229,-0.889 z m 0.002,-7.32823 c 0,-2.1055 0.009,-2.96684 0.0207,-1.91409 0.0114,1.05275 0.0114,2.77543 0,3.82818 -0.0114,1.05275 -0.0207,0.19141 -0.0207,-1.91409 z m -1.53125,-0.54688 c 1e-5,-2.12556 0.009,-2.98459 0.0207,-1.90897 0.0114,1.07563 0.0114,2.81472 -2e-5,3.86465 -0.0114,1.04992 -0.0207,0.16987 -0.0207,-1.95568 z m 3.24734,2.92563 c 0,-0.0151 0.0574,-0.0726 0.12761,-0.1276 0.11565,-0.0907 0.11823,-0.0881 0.0275,0.0275 -0.0953,0.12146 -0.15514,0.16009 -0.15514,0.10007 z m -1.71563,-12.66016 c 0,-2.62686 0.009,-3.70149 0.0203,-2.38805 0.0111,1.31343 0.0111,3.46268 0,4.77611 -0.0111,1.31343 -0.0203,0.23881 -0.0203,-2.38806 z m -1.53143,-0.36459 c 0,-2.42633 0.009,-3.41893 0.0204,-2.20576 0.0112,1.21317 0.0112,3.19836 0,4.41153 -0.0112,1.21317 -0.0204,0.22057 -0.0204,-2.20577 z m -6.56381,2.67973 -0.28824,-0.3099 0.3099,0.28824 c 0.28821,0.26806 0.34341,0.33156 0.28824,0.33156 -0.0119,0 -0.15137,-0.13945 -0.3099,-0.3099 z m 14.97873,-4.41152 c -0.0907,-0.11565 -0.0881,-0.11823 0.0275,-0.0275 0.12147,0.0952 0.16009,0.15513 0.10008,0.15513 -0.0151,0 -0.0726,-0.0574 -0.12761,-0.1276 z m -2.81526,-1.09141 c 0.11084,-0.0168 0.27491,-0.0163 0.36459,0.001 0.0897,0.0173 -0.001,0.031 -0.20152,0.0305 -0.20053,-5.8e-4 -0.27391,-0.0147 -0.16307,-0.0315 z m -7.17447,-7.00246 c -0.0907,-0.11566 -0.0881,-0.11824 0.0275,-0.0275 0.12146,0.0953 0.16009,0.15514 0.10007,0.15514 -0.0151,0 -0.0726,-0.0574 -0.1276,-0.1276 z m 4.5302,0.10007 c 0,-0.0151 0.0574,-0.0726 0.12761,-0.12761 0.11565,-0.0907 0.11823,-0.0881 0.0275,0.0275 -0.0953,0.12146 -0.15514,0.16008 -0.15514,0.10007 z m -4.99945,-0.50112 -0.21417,-0.23699 0.23698,0.21417 c 0.22091,0.19963 0.2705,0.2598 0.21417,0.2598 -0.0125,0 -0.11919,-0.10664 -0.23698,-0.23698 z m 5.36404,0.21416 c 0,-0.0126 0.10664,-0.11919 0.23698,-0.23698 l 0.23699,-0.21417 -0.21417,0.23699 c -0.19963,0.2209 -0.2598,0.2705 -0.2598,0.21416 z m -5.7698,-0.68813 c -0.0907,-0.11565 -0.0881,-0.11823 0.0275,-0.0275 0.12146,0.0953 0.16009,0.15514 0.10007,0.15514 -0.0151,0 -0.0726,-0.0574 -0.1276,-0.12761 z m 6.28022,0.10008 c 0,-0.0151 0.0574,-0.0726 0.12761,-0.12761 0.11565,-0.0907 0.11823,-0.0881 0.0275,0.0275 -0.0953,0.12146 -0.15514,0.16009 -0.15514,0.10008 z"
         id="path2728" />
      <path
         style="fill:#a3a3a3;fill-opacity:1;stroke-width:0.0729178"
         d="m 150.85789,181.01349 c -0.0907,-0.11566 -0.0881,-0.11824 0.0275,-0.0275 0.0702,0.055 0.12761,0.11247 0.12761,0.12761 0,0.06 -0.0599,0.0214 -0.15514,-0.10007 z m -9.52306,-0.74741 c 0,-0.18047 0.0142,-0.2543 0.0316,-0.16407 0.0174,0.0902 0.0174,0.2379 0,0.32813 -0.0174,0.0902 -0.0316,0.0164 -0.0316,-0.16406 z m 1.52833,0.0729 c 0,-0.14037 0.015,-0.19779 0.0333,-0.12761 0.0183,0.0702 0.0183,0.18503 0,0.25521 -0.0183,0.0702 -0.0333,0.0128 -0.0333,-0.1276 z m 6.96496,-5.29838 c 0.0501,-0.0202 0.13216,-0.0202 0.18229,0 0.0501,0.0202 0.009,0.0368 -0.0911,0.0368 -0.10026,0 -0.14128,-0.0166 -0.0911,-0.0368 z m -8.58031,-3.56721 c 0.004,-0.0849 0.0208,-0.10222 0.0441,-0.044 0.0211,0.0526 0.0185,0.11553 -0.006,0.13976 -0.0242,0.0242 -0.0415,-0.0188 -0.0383,-0.0957 z m 12.40718,-0.97831 c 0,-0.14037 0.015,-0.19779 0.0333,-0.12761 0.0183,0.0702 0.0183,0.18503 0,0.25521 -0.0183,0.0702 -0.0333,0.0128 -0.0333,-0.1276 z m -1.54244,0.0304 c 0.004,-0.0849 0.0208,-0.10222 0.0441,-0.044 0.0211,0.0526 0.0185,0.11552 -0.006,0.13975 -0.0242,0.0242 -0.0415,-0.0188 -0.0383,-0.0957 z m -8.10893,-6.79351 c -0.0907,-0.11565 -0.0881,-0.11823 0.0275,-0.0275 0.12147,0.0953 0.16009,0.15514 0.10008,0.15514 -0.0151,0 -0.0726,-0.0574 -0.12761,-0.12761 z m -1.07871,-1.81079 c 0.004,-0.0849 0.0208,-0.10222 0.0441,-0.044 0.0211,0.0526 0.0185,0.11553 -0.006,0.13976 -0.0242,0.0242 -0.0415,-0.0188 -0.0383,-0.0957 z m 6.64128,-2.29083 c 0,-0.10026 0.0165,-0.14128 0.0368,-0.0911 0.0202,0.0501 0.0202,0.13217 0,0.1823 -0.0202,0.0501 -0.0368,0.009 -0.0368,-0.0911 z m -3.58455,-5.59286 c -0.02,-1.33152 -0.0113,-2.39584 0.0193,-2.36516 0.0306,0.0307 0.047,1.12011 0.0364,2.42094 l -0.0193,2.36516 z m 1.54702,0.0372 c -0.009,-1.31106 0.009,-2.399 0.039,-2.41764 0.0301,-0.0186 0.0463,0.67669 0.0361,1.5452 -0.035,2.97155 -0.0594,3.25575 -0.0751,0.87244 z m -1.12312,-10.09853 c 0.0526,-0.0211 0.11553,-0.0185 0.13976,0.006 0.0242,0.0242 -0.0188,0.0415 -0.0957,0.0383 -0.0849,-0.004 -0.10222,-0.0208 -0.044,-0.0441 z m 0.65626,0 c 0.0526,-0.0211 0.11553,-0.0185 0.13976,0.006 0.0242,0.0242 -0.0188,0.0415 -0.0957,0.0383 -0.0849,-0.004 -0.10222,-0.0208 -0.044,-0.0441 z"
         id="path2726" />
      <path
         style="fill:#607d8b;fill-opacity:1;stroke-width:0.0729178"
         d="m 146.58576,181.23393 c -0.0889,-0.0162 -0.24472,-0.12823 -0.34636,-0.24901 l -0.18478,-0.21961 v -2.15328 c 0,-1.69234 0.0195,-2.14592 0.0911,-2.1189 0.0501,0.0189 0.37826,0.12762 0.72918,0.24158 l 0.63803,0.20721 v 1.91614 1.91614 l -0.20053,0.21288 c -0.20574,0.21841 -0.442,0.29867 -0.72669,0.24685 z m 5.61234,-1.00431 c 8.1e-4,-0.16042 0.0157,-0.21746 0.0332,-0.12676 0.0174,0.0907 0.0168,0.22196 -0.001,0.29167 -0.0182,0.0697 -0.0325,-0.004 -0.0317,-0.16491 z m -9.53416,-3.02609 c 0.0726,-0.0802 0.14839,-0.14583 0.16844,-0.14583 0.0201,0 -0.0229,0.0656 -0.0955,0.14583 -0.0726,0.0802 -0.14838,0.14584 -0.16844,0.14584 -0.02,0 0.0229,-0.0656 0.0955,-0.14584 z m 0.8978,-0.56023 c 0.0526,-0.0211 0.11553,-0.0185 0.13976,0.006 0.0242,0.0242 -0.0188,0.0415 -0.0957,0.0383 -0.0849,-0.004 -0.10222,-0.0208 -0.0441,-0.0441 z m 3.92274,-1.39567 c -0.0204,-0.033 -0.35012,-0.15607 -0.73268,-0.27344 l -0.69558,-0.2134 -8e-4,-3.81487 c -7.9e-4,-3.73421 0.002,-3.81392 0.13977,-3.77025 0.0773,0.0245 0.39723,0.13818 0.71094,0.25253 l 0.57039,0.20793 0.0365,3.83579 c 0.0201,2.10969 0.0302,3.83579 0.0225,3.83577 -0.008,-1e-5 -0.0306,-0.027 -0.051,-0.0601 z m 1.6442,-0.96081 c 0,-0.10026 0.0165,-0.14128 0.0368,-0.0911 0.0202,0.0501 0.0202,0.13217 0,0.1823 -0.0202,0.0501 -0.0368,0.009 -0.0368,-0.0911 z m -8.55219,-0.71095 c -0.0907,-0.11565 -0.0881,-0.11823 0.0275,-0.0275 0.0702,0.055 0.1276,0.11247 0.1276,0.12761 0,0.06 -0.0599,0.0214 -0.15513,-0.10008 z m -0.84733,-2.02346 c 8.1e-4,-0.16042 0.0157,-0.21746 0.0332,-0.12676 0.0174,0.0907 0.0168,0.22195 -0.001,0.29167 -0.0183,0.0697 -0.0325,-0.005 -0.0317,-0.16491 z m 1.00246,-2.25153 c 0,-0.0151 0.0574,-0.0726 0.12761,-0.1276 0.11565,-0.0907 0.11823,-0.0881 0.0275,0.0275 -0.0953,0.12146 -0.15514,0.16009 -0.15514,0.10007 z m 3.65165,-1.2546 c 0.004,-0.0849 0.0208,-0.10223 0.044,-0.0441 0.0211,0.0526 0.0185,0.11553 -0.006,0.13976 -0.0242,0.0242 -0.0415,-0.0188 -0.0383,-0.0957 z m 2.34622,-2.47536 -0.67412,-0.32984 -0.0186,-6.79066 -0.0186,-6.79066 -0.36459,-0.124 c -0.93613,-0.3184 -1.72977,-0.93831 -2.17593,-1.69964 -0.89276,-1.52337 -0.67457,-3.41091 0.53766,-4.6513 0.81586,-0.83482 1.615,-1.17358 2.7685,-1.17358 1.15349,0 1.95263,0.33876 2.7685,1.17358 0.76874,0.78659 1.14633,1.80475 1.07106,2.88806 -0.11423,1.64424 -1.11208,2.91962 -2.70934,3.46288 l -0.36458,0.12401 -0.0186,7.12075 c -0.0102,3.91642 -0.043,7.12064 -0.0729,7.12051 -0.0299,-1.5e-4 -0.35768,-0.14869 -0.72844,-0.33011 z m -2.50711,-1.62019 c -0.0907,-0.11565 -0.0881,-0.11823 0.0275,-0.0275 0.12146,0.0952 0.16009,0.15513 0.10007,0.15513 -0.0151,0 -0.0726,-0.0574 -0.1276,-0.1276 z"
         id="path2724" />
      <path
         style="fill:#767676;fill-opacity:1;stroke-width:0.0729178"
         d="m 151.36395,181.23712 c 0.0526,-0.0211 0.11553,-0.0185 0.13976,0.006 0.0242,0.0242 -0.0188,0.0415 -0.0957,0.0383 -0.0849,-0.004 -0.10222,-0.0208 -0.044,-0.0441 z m -0.94356,-4.37995 c -0.0907,-0.11565 -0.0881,-0.11823 0.0275,-0.0275 0.12146,0.0953 0.16009,0.15514 0.10007,0.15514 -0.0151,0 -0.0726,-0.0574 -0.1276,-0.12761 z m -3.7323,-0.17741 c -0.35342,-0.12133 -0.62997,-0.23321 -0.61454,-0.24864 0.0154,-0.0154 0.3538,0.084 0.75196,0.22082 0.39816,0.13687 0.67471,0.24876 0.61455,0.24863 -0.0602,-1.4e-4 -0.39854,-0.0995 -0.75197,-0.22081 z m 0.0957,-1.6273 c -0.381,-0.13407 -0.66002,-0.24634 -0.62005,-0.24949 0.11092,-0.009 1.23035,0.36822 1.30912,0.44084 0.0916,0.0845 0.10655,0.0886 -0.68907,-0.19135 z m 5.35945,-1.64065 c 0.19751,-0.20053 0.37552,-0.36459 0.39557,-0.36459 0.0201,0 -0.12514,0.16406 -0.32265,0.36459 -0.19751,0.20052 -0.37551,0.36459 -0.39556,0.36459 -0.0201,0 0.12514,-0.16407 0.32264,-0.36459 z m -10.40008,-0.78387 c -0.0907,-0.11565 -0.0881,-0.11823 0.0275,-0.0275 0.0702,0.055 0.12761,0.11247 0.12761,0.12761 0,0.06 -0.0599,0.0214 -0.15514,-0.10008 z m 9.41569,-0.34636 c 0.13605,-0.14036 0.26377,-0.25521 0.28382,-0.25521 0.0201,0 -0.0748,0.11485 -0.2109,0.25521 -0.13605,0.14037 -0.26377,0.25521 -0.28382,0.25521 -0.02,0 0.0749,-0.11484 0.2109,-0.25521 z m -9.33347,-1.95513 c 0,-0.0126 0.10664,-0.1192 0.23698,-0.23699 l 0.23699,-0.21416 -0.21417,0.23698 c -0.19963,0.2209 -0.2598,0.2705 -0.2598,0.21417 z m -0.43751,-1.60891 c 0,-0.0151 0.0574,-0.0726 0.12761,-0.12761 0.11565,-0.0907 0.11823,-0.0881 0.0275,0.0275 -0.0953,0.12147 -0.15514,0.16009 -0.15514,0.10008 z m 2.73442,-0.1183 c 0.0726,-0.0802 0.14839,-0.14584 0.16844,-0.14584 0.02,0 -0.0229,0.0656 -0.0955,0.14584 -0.0726,0.0802 -0.14839,0.14583 -0.16844,0.14583 -0.02,0 0.0229,-0.0656 0.0955,-0.14583 z m 2.58858,-1.23961 c -0.0602,-0.0389 -0.0766,-0.0707 -0.0365,-0.0707 0.0401,0 0.12214,0.0318 0.1823,0.0707 0.0601,0.0389 0.0766,0.0707 0.0365,0.0707 -0.0401,0 -0.12214,-0.0318 -0.1823,-0.0707 z m -0.58334,-0.21875 c -0.0602,-0.0389 -0.0766,-0.0707 -0.0365,-0.0707 0.0401,0 0.12214,0.0318 0.18229,0.0707 0.0602,0.0389 0.0766,0.0707 0.0365,0.0707 -0.0401,0 -0.12213,-0.0318 -0.18229,-0.0707 z m 1.02085,-1.31252 c -0.0602,-0.0389 -0.0766,-0.0707 -0.0365,-0.0707 0.0401,0 0.12214,0.0318 0.18229,0.0707 0.0602,0.0389 0.0766,0.0707 0.0365,0.0707 -0.0401,0 -0.12214,-0.0318 -0.18229,-0.0707 z m -1.02085,-0.51042 c -0.0657,-0.0425 -0.0747,-0.0711 -0.0225,-0.0718 0.0478,-5.8e-4 0.10712,0.0317 0.13191,0.0718 0.0559,0.0905 0.0307,0.0905 -0.10938,0 z m 3.50005,-1.20315 c 0.13605,-0.14036 0.26377,-0.25521 0.28382,-0.25521 0.02,0 -0.0748,0.11485 -0.2109,0.25521 -0.13605,0.14037 -0.26377,0.25521 -0.28382,0.25521 -0.02,0 0.0748,-0.11484 0.2109,-0.25521 z m 4.66674,-0.72917 c 0.13605,-0.14037 0.26377,-0.25522 0.28382,-0.25522 0.02,0 -0.0749,0.11485 -0.2109,0.25522 -0.13605,0.14036 -0.26377,0.25521 -0.28382,0.25521 -0.0201,0 0.0748,-0.11485 0.2109,-0.25521 z m -4.12678,-2.5339 -0.13891,-0.16406 0.16406,0.13891 c 0.0902,0.0764 0.16407,0.15022 0.16407,0.16406 0,0.0583 -0.0587,0.0153 -0.18922,-0.13891 z m -8.35583,-2.80245 c 0.0526,-0.0211 0.11553,-0.0185 0.13976,0.006 0.0242,0.0242 -0.0188,0.0415 -0.0957,0.0383 -0.0849,-0.004 -0.10222,-0.0208 -0.044,-0.0441 z"
         id="path2722" />
      <path
         style="fill:#009688;fill-opacity:1;stroke-width:0.0729178"
         d="m 141.84717,181.17635 c -0.35495,-0.14925 -0.45929,-0.36452 -0.45929,-0.94764 0,-1.2493 0.63123,-2.49829 1.65937,-3.28333 0.44239,-0.3378 0.80868,-0.34756 1.12621,-0.03 0.19554,0.19554 0.21799,0.25985 0.18694,0.53536 -0.0309,0.27384 -0.10386,0.3809 -0.58179,0.8533 -0.63561,0.62827 -0.84656,1.07921 -0.91355,1.95281 -0.0307,0.40092 -0.0801,0.582 -0.19409,0.71223 -0.2103,0.24024 -0.54511,0.32449 -0.8238,0.20731 z m 9.12457,-0.13029 c -0.17302,-0.14883 -0.20193,-0.24125 -0.25391,-0.81154 -0.0818,-0.89765 -0.33841,-1.40088 -1.056,-2.07103 -0.69757,-0.65145 -1.57525,-1.10429 -3.13324,-1.61658 -2.29853,-0.75579 -3.76756,-1.38724 -4.77612,-2.05296 -0.68635,-0.45305 -1.46382,-1.25665 -1.71858,-1.77634 -0.19336,-0.39446 -0.21365,-0.50555 -0.2128,-1.1652 9.1e-4,-0.70586 0.0101,-0.74668 0.28686,-1.27607 0.46635,-0.892 1.79939,-2.09358 3.06534,-2.76304 0.41607,-0.22002 0.73044,-0.20116 0.99108,0.0595 0.24297,0.24297 0.28501,0.59972 0.10154,0.86167 -0.0614,0.0876 -0.49145,0.41016 -0.95572,0.71673 -1.34203,0.88619 -2.06538,1.73372 -2.06743,2.42236 -0.002,0.68362 0.84617,1.52819 2.23835,2.22874 0.67562,0.33999 1.80377,0.7885 2.50059,0.99415 3.27629,0.96692 5.04526,2.12187 5.83508,3.80966 0.48447,1.03529 0.48564,2.27421 0.002,2.53284 -0.24457,0.13089 -0.63732,0.0879 -0.84742,-0.0929 z m -1.56851,-6.24321 c -0.15756,-0.15756 -0.21315,-0.2824 -0.21315,-0.47875 0,-0.38665 0.0693,-0.47416 0.81147,-1.02465 1.30951,-0.97132 2.17816,-2.04154 2.17816,-2.6836 0,-0.91949 -1.32447,-1.846 -3.97402,-2.77995 -3.72704,-1.31376 -5.7231,-2.19746 -7.21885,-3.19597 -1.55564,-1.03849 -2.46011,-2.12471 -2.66388,-3.19917 -0.0906,-0.47773 0.0165,-1.11593 0.27189,-1.61987 0.40133,-0.792 1.52036,-1.57083 2.47701,-1.72397 1.05137,-0.1683 2.42938,0.3008 2.74843,0.93563 0.30781,0.61245 0.19213,1.14071 -0.39558,1.80646 -0.65214,0.73873 -0.66758,1.23041 -0.0669,2.12995 0.85099,1.27436 2.57646,2.42798 4.92079,3.28996 1.51069,0.55546 2.27746,0.87254 2.80734,1.16093 1.21068,0.6589 1.92864,1.29075 2.29691,2.02142 0.1996,0.39603 0.21873,0.49786 0.21856,1.1632 -2.2e-4,0.70243 -0.0108,0.75058 -0.28888,1.31252 -0.2428,0.49064 -0.42818,0.72251 -1.16649,1.459 -1.01373,1.01125 -1.8862,1.64001 -2.27568,1.64001 -0.18351,0 -0.31315,-0.0591 -0.46714,-0.21315 z m 0.1879,-9.20496 c -0.24975,-0.13735 -0.39774,-0.37872 -0.39942,-0.65147 -0.001,-0.22028 0.0746,-0.34836 0.47564,-0.8021 1.34521,-1.52188 1.45668,-2.24786 0.51261,-3.33847 -0.18674,-0.21573 -0.38742,-0.50685 -0.44595,-0.64694 -0.44347,-1.06139 0.61922,-2.13275 2.11549,-2.13275 0.9356,0 1.88115,0.40097 2.58896,1.09787 0.47949,0.47211 0.75687,1 0.88146,1.67757 0.20605,1.12056 -0.47153,2.30928 -1.86567,3.27305 -0.6557,0.45328 -1.73335,0.9951 -2.67502,1.34493 -0.74748,0.2777 -0.95165,0.30834 -1.1881,0.17831 z"
         id="path2720" />
    </g>
  </g>
</svg>
