<?xml version="1.0" encoding="UTF-8" standalone="no"?>
<!-- Created with Inkscape (http://www.inkscape.org/) -->

<svg
   width="99.999947"
   height="99.999947"
   viewBox="0 0 26.45832 26.458322"
   version="1.1"
   id="svg1580"
   inkscape:version="1.2.2 (b0a8486541, 2022-12-01)"
   sodipodi:docname="img_vertebra_pain.svg"
   xmlns:inkscape="http://www.inkscape.org/namespaces/inkscape"
   xmlns:sodipodi="http://sodipodi.sourceforge.net/DTD/sodipodi-0.dtd"
   xmlns="http://www.w3.org/2000/svg"
   xmlns:svg="http://www.w3.org/2000/svg">
  <sodipodi:namedview
     id="namedview1582"
     pagecolor="#505050"
     bordercolor="#eeeeee"
     borderopacity="1"
     inkscape:showpageshadow="0"
     inkscape:pageopacity="0"
     inkscape:pagecheckerboard="0"
     inkscape:deskcolor="#505050"
     inkscape:document-units="mm"
     showgrid="false"
     inkscape:zoom="2.9248554"
     inkscape:cx="39.66008"
     inkscape:cy="52.310278"
     inkscape:window-width="1364"
     inkscape:window-height="751"
     inkscape:window-x="0"
     inkscape:window-y="15"
     inkscape:window-maximized="1"
     inkscape:current-layer="g22103" />
  <defs
     id="defs1577" />
  <g
     inkscape:label="Слой 1"
     inkscape:groupmode="layer"
     id="layer1"
     transform="translate(-138.99242,-143.95303)">
    <g
       id="g22103"
       transform="matrix(0.81509645,0,0,0.81509645,131.314,-269.73947)">
      <circle
         style="fill:#ffffff;fill-opacity:1;stroke:none;stroke-width:1.58615;stroke-linejoin:round"
         id="path21223"
         cx="25.77051"
         cy="523.53223"
         r="15.513381" />
      <path
         style="fill:#316096;fill-opacity:1;stroke:none;stroke-width:0.264583px;stroke-linecap:butt;stroke-linejoin:miter;stroke-opacity:1"
         d="m 18.570388,518.86871 c 0,0 2.867814,0.72543 4.349799,0.30313 1.481986,-0.4223 3.848326,-0.9843 3.848326,-0.9843 l 0.397891,0.51596 0.130953,0.96126 -0.5619,0.65354 -1.117696,0.65935 -0.825088,0.66643 -1.528847,0.40479 -1.458172,0.11689 -1.840284,-0.40275 -0.942639,-0.55843 -1.024354,-0.51991 -0.272245,-0.8986 0.05155,-0.3806 0.52989,-0.72618 z"
         id="path21297"
         sodipodi:nodetypes="csccccccccccccccc" />
      <path
         id="path21163"
         style="fill:#3573b9;fill-opacity:1;stroke:none;stroke-width:1.12079;stroke-linejoin:round"
         d="m 25.65017,507.5381 c -8.88612,1e-4 -16.08964,7.20386 -16.08945,16.08998 10e-5,8.88592 7.20353,16.08935 16.08945,16.08945 8.88612,1.9e-4 16.08988,-7.20333 16.08998,-16.08945 1.9e-4,-8.88633 -7.20365,-16.09017 -16.08998,-16.08998 z m 0.1478,2.98277 c 0.0443,0.002 0.0904,0.006 0.14004,0.0119 0.58473,0.0659 1.03831,0.53998 1.26607,1.32344 l 0.16278,0.56069 h 0.55087 c 1.65586,0 2.58807,1.77497 1.50224,2.8608 -0.36292,0.36292 -0.9236,0.6328 -1.49035,0.71779 -0.43283,0.0649 -0.47646,0.0965 -0.47646,0.34416 0,0.14989 -0.0701,0.50933 -0.15606,0.79892 -0.15373,0.51767 -0.15206,0.53582 0.11421,1.08004 0.22993,0.46998 0.26212,0.63826 0.2129,1.11518 -0.0502,0.48682 -0.0245,0.6127 0.19379,0.94257 0.20326,0.30715 0.42142,1.16426 0.43925,1.726 0.001,0.0351 0.28743,0.0817 0.63614,0.10387 0.45916,0.0292 0.7261,0.10599 0.96841,0.27853 0.84451,0.60135 0.80998,2.01454 -0.0724,2.95589 -0.28992,0.30933 -0.88113,0.5096 -1.449,0.49093 -0.20485,-0.007 -0.39254,0.0214 -0.41703,0.0625 -0.0245,0.0411 -0.0756,0.34654 -0.11369,0.67903 -0.0381,0.33249 -0.1564,0.74602 -0.26303,0.9188 -0.26709,0.43281 -0.24666,0.55944 0.14934,0.91003 0.44363,0.39275 0.64766,1.02264 0.48059,1.48466 -0.16647,0.46037 -0.15246,0.54607 0.13333,0.79737 0.17915,0.15753 0.28978,0.40896 0.38085,0.86764 l 0.12816,0.64596 0.50126,0.0181 c 0.97881,0.0352 1.55786,0.5886 1.55856,1.48931 5e-4,0.60315 -0.18015,1.04315 -0.60048,1.46348 -0.41889,0.41889 -0.82786,0.62845 -1.38648,0.71003 -0.43181,0.0631 -0.45076,0.0809 -0.62683,0.60152 -0.23795,0.7037 -0.80842,1.28877 -1.44022,1.47639 -0.66168,0.1965 -1.89627,0.25106 -3.45199,0.15245 h -5.1e-4 c -2.27405,-0.14413 -3.57337,-0.44635 -4.44418,-1.03301 -0.55537,-0.37415 -0.82044,-0.77469 -0.92656,-1.39992 l -0.0744,-0.4377 -0.65267,-0.0532 c -1.12053,-0.0909 -1.7092,-0.60269 -1.70998,-1.48724 -10e-4,-1.10504 1.08804,-2.07549 2.10168,-1.87276 0.30991,0.062 0.31585,0.0554 0.32143,-0.32763 0.003,-0.21474 0.0615,-0.54914 0.12919,-0.7431 0.10406,-0.29805 0.0952,-0.42658 -0.0563,-0.83199 -0.0985,-0.26382 -0.17901,-0.62665 -0.1788,-0.80616 4e-4,-0.35798 0.3168,-0.95472 0.55449,-1.04593 0.19868,-0.0762 0.19125,-0.28028 -0.0165,-0.45217 -0.21488,-0.17774 -0.63693,-1.08005 -0.63821,-1.36477 -9.1e-4,-0.20973 -0.0318,-0.2165 -0.73535,-0.1633 -0.61879,0.0468 -0.79937,0.0222 -1.1498,-0.15658 -0.54511,-0.2781 -0.85689,-0.73005 -0.91416,-1.32601 -0.0632,-0.65755 0.12384,-1.15569 0.55759,-1.48622 0.31922,-0.24324 0.45029,-0.27595 1.10691,-0.27595 h 0.74465 l -0.0667,-0.57826 c -0.0486,-0.41871 -0.0201,-0.72739 0.10336,-1.11983 0.15674,-0.49836 0.15735,-0.56688 0.01,-0.85266 -0.2116,-0.4092 -0.19975,-0.77907 0.0419,-1.31155 l 0.19792,-0.43666 -0.23978,-0.31885 c -0.1318,-0.17553 -0.26822,-0.45541 -0.30334,-0.62166 l -0.0636,-0.30231 h -0.89659 c -0.75461,0 -0.9422,-0.0337 -1.18184,-0.21239 -0.66177,-0.49349 -0.64468,-1.40864 0.0398,-2.16628 0.4045,-0.44774 0.64194,-0.59909 1.08055,-0.68936 0.29068,-0.0598 0.29599,-0.0722 0.26975,-0.63872 -0.0339,-0.73202 0.22926,-1.21161 0.76223,-1.38751 0.22623,-0.0747 1.16477,-0.12655 2.48977,-0.13746 2.00253,-0.0165 2.1782,-0.0332 3.01687,-0.29146 0.48979,-0.15084 1.32789,-0.50493 1.86293,-0.78651 0.75024,-0.39485 0.97355,-0.4862 1.28365,-0.47284 z"
         sodipodi:nodetypes="sssssssccsssssssscssscssssssscssssssssscccsscsssssssssssccsccccccssssssssss" />
      <path
         style="fill:#fa8f59;stroke-width:0.100756"
         d="m 28.34496,536.51859 c -0.0314,-0.0508 -0.015,-0.20301 0.0365,-0.33831 0.0723,-0.19007 0.18829,-0.25873 0.51024,-0.30191 0.68776,-0.0922 1.45462,-0.62676 1.7572,-1.22478 0.14306,-0.28276 0.26011,-0.65711 0.26011,-0.8319 0,-0.25346 0.0702,-0.36116 0.34667,-0.53205 0.99034,-0.61206 1.95815,-2.16313 2.22393,-3.56419 0.27315,-1.43995 0.16826,-2.49673 -0.36536,-3.68086 -0.35056,-0.77792 -1.31788,-1.76049 -2.08848,-2.12142 -0.46592,-0.21823 -0.51978,-0.27667 -0.51978,-0.56398 0,-0.17629 -0.10202,-0.47041 -0.2267,-0.65361 -0.36811,-0.54087 -0.71301,-0.73688 -1.38171,-0.78525 -0.58719,-0.0425 -0.60487,-0.0522 -0.65154,-0.35917 -0.0264,-0.17354 -0.074,-0.48098 -0.10575,-0.68322 -0.0318,-0.20223 -0.1723,-0.53648 -0.3123,-0.74277 -0.18959,-0.27938 -0.23828,-0.44905 -0.19084,-0.66505 0.0667,-0.30365 0.11797,-0.32224 0.80335,-0.2913 0.8933,0.0403 2.91177,0.67916 3.10324,0.98214 0.0443,0.0701 0.15191,0.1275 0.2391,0.1275 0.51988,0 2.71364,2.0055 3.48219,3.18335 1.08594,1.66428 1.431,2.75292 1.41812,4.47409 -0.009,1.16614 -0.0456,1.44427 -0.32076,2.41813 -0.24584,0.87009 -0.76025,1.87962 -1.36055,2.67003 -0.42184,0.55545 -1.59201,1.76323 -1.70832,1.76323 -0.0524,0 -0.14563,0.0656 -0.20715,0.14571 -0.33347,0.43437 -2.10231,1.18359 -3.55745,1.50681 -0.82847,0.18402 -1.10288,0.19996 -1.18395,0.0688 z"
         id="path20762" />
      <path
         style="fill:#d95021;stroke-width:0.100756"
         d="m 30.909,533.282 c 0,-0.61303 -0.73612,-1.21641 -1.56821,-1.28541 -0.43773,-0.0363 -0.54766,-0.0809 -0.54766,-0.22223 0,-0.10199 0.12965,-0.23051 0.30637,-0.30371 1.72188,-0.71323 2.42254,-2.81142 1.40699,-4.21335 -0.40368,-0.55727 -1.16802,-1.11598 -1.62713,-1.18939 -0.47059,-0.0752 -0.42671,-0.18991 0.10525,-0.27497 0.21861,-0.035 0.53347,-0.178 0.69969,-0.31787 0.34248,-0.28817 0.82168,-1.17977 0.82168,-1.52881 0,-0.28738 -0.002,-0.28744 0.60616,0.0206 1.15318,0.58436 2.11496,1.88584 2.40431,3.25351 0.2567,1.21337 0.0355,2.84337 -0.54635,4.0257 -0.37713,0.76636 -1.21742,1.76151 -1.74851,2.07076 -0.30917,0.18002 -0.31259,0.17964 -0.31259,-0.0348 z"
         id="path20758" />
      <path
         style="fill:#ac2904;stroke-width:0.100756"
         d="m 29.47953,532.00805 c 0.0727,-0.0291 0.15964,-0.0255 0.19312,0.008 0.0335,0.0335 -0.026,0.0573 -0.13225,0.0529 -0.11737,-0.005 -0.14125,-0.0287 -0.0609,-0.0609 z m -0.7713,-0.86713 c -0.0598,-0.2377 -0.22089,-0.53745 -0.35785,-0.66612 -0.20467,-0.19228 -0.23228,-0.27798 -0.15502,-0.48118 0.24035,-0.63217 0.0238,-1.38149 -0.53671,-1.85739 l -0.30985,-0.26307 0.21172,-0.34257 c 0.11645,-0.18842 0.24343,-0.59145 0.28217,-0.89563 0.0387,-0.30417 0.11531,-0.60972 0.17014,-0.67899 0.1113,-0.14061 0.62198,-0.17659 0.53619,-0.0378 -0.03,0.0485 0.12179,0.11636 0.33725,0.15081 0.46749,0.0748 1.30743,0.70627 1.67192,1.25704 0.85339,1.28956 0.37516,3.05992 -1.0588,3.9196 -0.30042,0.1801 -0.57684,0.32745 -0.61427,0.32745 -0.0374,0 -0.11704,-0.19448 -0.17689,-0.43218 z"
         id="path20754" />
      <path
         style="fill:#5b210e;stroke-width:0.100756"
         d="m 28.37532,535.88008 c 0.0508,-0.0508 0.19955,-0.0754 0.33062,-0.0548 0.20169,0.0317 0.18749,0.0459 -0.0923,0.0923 -0.20022,0.0332 -0.29421,0.0184 -0.23832,-0.0375 z m 1.42537,-0.41554 c 0,-0.0209 0.0793,-0.10027 0.17632,-0.17633 0.15981,-0.12532 0.16337,-0.12176 0.038,0.038 -0.13162,0.16784 -0.21436,0.22121 -0.21436,0.13829 z m 0.50378,-0.50378 c 0,-0.0209 0.0793,-0.10027 0.17632,-0.17633 0.1598,-0.12532 0.16337,-0.12176 0.038,0.038 -0.13162,0.16783 -0.21436,0.2212 -0.21436,0.13828 z m 0.53122,-1.37254 c 0,-0.24937 0.0196,-0.35139 0.0437,-0.2267 0.024,0.12468 0.024,0.32871 0,0.4534 -0.024,0.12468 -0.0437,0.0227 -0.0437,-0.2267 z m -0.17195,-0.68441 c -0.0884,-0.2784 -0.38587,-0.52213 -0.83119,-0.68095 -0.22584,-0.0806 -0.30135,-0.1388 -0.18299,-0.14118 0.40294,-0.008 1.32083,0.77344 1.13116,0.96312 -0.0302,0.0302 -0.0828,-0.0333 -0.11698,-0.14099 z m -1.9182,-0.85212 c -0.0227,-0.0693 -0.0923,-0.38574 -0.15469,-0.70326 -0.0794,-0.40397 -0.18705,-0.63523 -0.3586,-0.77017 -0.27769,-0.21844 -0.29375,-0.31744 -0.12651,-0.77993 0.16707,-0.46202 -0.0367,-1.09177 -0.48031,-1.48452 -0.396,-0.35059 -0.41685,-0.47737 -0.14976,-0.91018 0.10663,-0.17278 0.22503,-0.5862 0.2631,-0.91869 0.085,-0.74173 0.0947,-0.75852 0.43059,-0.74375 l 0.27113,0.0119 -0.29656,0.0636 c -0.1631,0.035 -0.28288,0.10899 -0.26616,0.1644 0.0776,0.25725 -0.12016,1.23053 -0.3136,1.54352 l -0.21537,0.34848 0.30985,0.26307 c 0.56054,0.4759 0.77706,1.22522 0.53671,1.85739 -0.0771,0.20273 -0.0499,0.2887 0.15128,0.47766 0.26516,0.24911 0.44504,0.76128 0.44593,1.26975 3e-4,0.17548 0.0572,0.34193 0.12651,0.36988 0.0986,0.0398 0.098,0.0525 -0.003,0.0588 -0.071,0.004 -0.14767,-0.0487 -0.17037,-0.11799 z m 0.43172,-0.0436 c 0.0727,-0.0291 0.15964,-0.0255 0.19312,0.008 0.0335,0.0335 -0.026,0.0573 -0.13224,0.0529 -0.11738,-0.005 -0.14125,-0.0287 -0.0609,-0.0609 z m -0.24622,-6.33078 c 0.57126,-0.1569 0.9747,-0.50725 1.22608,-1.06472 0.0984,-0.21817 0.19762,-0.37793 0.22052,-0.35503 0.0545,0.0545 -0.31825,0.7564 -0.54834,1.03266 -0.24351,0.29238 -0.76351,0.5418 -1.10673,0.53084 -0.21881,-0.007 -0.17205,-0.0392 0.20847,-0.14375 z m 1.503,-2.01349 c 8.1e-4,-0.27708 0.0203,-0.37847 0.0435,-0.22532 0.0232,0.15316 0.0225,0.37986 -0.001,0.50378 -0.0239,0.12393 -0.0429,-10e-4 -0.0421,-0.27846 z m -0.58297,-1.3224 c -0.18117,-0.15417 -0.21822,-0.21547 -0.0925,-0.15301 0.18469,0.0917 0.5311,0.42339 0.43226,0.41385 -0.0206,-0.002 -0.17355,-0.11937 -0.33979,-0.26084 z m -1.23426,-0.40952 c 0.097,-0.0254 0.25567,-0.0254 0.35264,0 0.097,0.0253 0.0176,0.0461 -0.17632,0.0461 -0.19395,0 -0.2733,-0.0207 -0.17632,-0.0461 z m -0.50559,-0.63584 c 0,-0.19395 0.0207,-0.2733 0.0461,-0.17632 0.0253,0.097 0.0253,0.25567 0,0.35264 -0.0254,0.097 -0.0461,0.0176 -0.0461,-0.17632 z m -0.5192,-2.07389 c 0.005,-0.11737 0.0287,-0.14125 0.0609,-0.0609 0.0291,0.0727 0.0255,0.15963 -0.008,0.19311 -0.0335,0.0335 -0.0573,-0.026 -0.0529,-0.13224 z"
         id="path20752" />
      <path
         style="fill:#316096;fill-opacity:1;stroke:none;stroke-width:0.264583px;stroke-linecap:butt;stroke-linejoin:miter;stroke-opacity:1"
         d="m 19.113506,527.94841 1.061412,0.46699 c 0,0 3.727577,0.56991 4.576105,0.4495 0.848528,-0.12041 2.259125,-0.47598 2.259125,-0.47598 0,0 0.762958,0.39573 0.788823,0.77118 0.02588,0.37547 -0.289361,1.56374 -0.858731,1.74405 -0.569369,0.18032 -2.268102,0.5292 -2.268102,0.5292 l -2.595516,0.003 -1.26557,-0.61494 -1.758108,-0.59283 c 0,0 -0.642293,-0.09 -0.694944,-0.49982 -0.05265,-0.40987 -0.195333,-1.51146 0.755506,-1.77909 z"
         id="path22023" />
      <path
         style="fill:#1a1a1a;stroke-width:0.100756"
         d="m 23.37249,538.1087 c -2.27405,-0.14413 -3.57382,-0.44618 -4.44463,-1.03285 -0.55537,-0.37415 -0.82045,-0.77463 -0.92657,-1.39986 l -0.0743,-0.43794 -0.65256,-0.0529 c -1.12053,-0.0909 -1.70933,-0.60307 -1.71011,-1.48762 -0.001,-1.10504 1.08821,-2.0755 2.10185,-1.87277 0.30991,0.062 0.31602,0.0558 0.3216,-0.32724 0.003,-0.21474 0.0611,-0.54912 0.12881,-0.74308 0.10406,-0.29805 0.0954,-0.4269 -0.0561,-0.83231 -0.0985,-0.26382 -0.17901,-0.62654 -0.1788,-0.80605 4e-4,-0.35798 0.31666,-0.95462 0.55435,-1.04583 0.19868,-0.0762 0.19118,-0.2802 -0.0166,-0.45209 -0.21488,-0.17774 -0.63661,-1.08005 -0.63789,-1.36477 -9.1e-4,-0.20973 -0.0318,-0.21659 -0.73532,-0.16339 -0.61879,0.0468 -0.79978,0.0222 -1.15021,-0.15662 -0.54511,-0.2781 -0.85669,-0.7302 -0.91396,-1.32616 -0.0632,-0.65755 0.12362,-1.15561 0.55737,-1.48614 0.31922,-0.24324 0.45049,-0.27596 1.10711,-0.27596 h 0.74496 l -0.0671,-0.57815 c -0.0486,-0.41871 -0.0201,-0.72759 0.10333,-1.12003 0.15675,-0.49836 0.15754,-0.56684 0.01,-0.85262 -0.2116,-0.4092 -0.19981,-0.77893 0.0418,-1.31141 l 0.19809,-0.43652 -0.23965,-0.31915 c -0.1318,-0.17553 -0.26837,-0.45517 -0.30349,-0.62142 l -0.0638,-0.30227 h -0.89664 c -0.75462,0 -0.94173,-0.0336 -1.18137,-0.21233 -0.66178,-0.49349 -0.64518,-1.40878 0.0393,-2.16642 0.4045,-0.44774 0.64199,-0.59928 1.0806,-0.68955 0.29068,-0.0598 0.29595,-0.0723 0.26971,-0.63879 -0.0339,-0.73202 0.22961,-1.21142 0.76258,-1.38732 0.22623,-0.0747 1.16445,-0.12642 2.48945,-0.13733 2.00253,-0.0165 2.17824,-0.0335 3.01691,-0.29175 0.48979,-0.15084 1.32829,-0.50464 1.86333,-0.78622 0.85741,-0.45125 1.02623,-0.50595 1.42338,-0.46118 0.58473,0.0659 1.0382,0.53996 1.26596,1.32342 l 0.16304,0.56082 h 0.55102 c 1.65586,0 2.58766,1.77489 1.50183,2.86072 -0.36292,0.36292 -0.92342,0.63296 -1.49017,0.71795 -0.43283,0.0649 -0.47623,0.0963 -0.47623,0.34396 0,0.14989 -0.0704,0.50947 -0.15636,0.79906 -0.15373,0.51767 -0.15181,0.53584 0.11446,1.08006 0.22994,0.46998 0.26206,0.63832 0.21284,1.11524 -0.0502,0.48682 -0.0244,0.61245 0.19391,0.94232 0.20326,0.30715 0.42134,1.1642 0.43917,1.72594 10e-4,0.0351 0.28733,0.082 0.63604,0.1042 0.45917,0.0292 0.72627,0.10606 0.96858,0.2786 0.84451,0.60135 0.80993,2.01412 -0.0724,2.95548 -0.28992,0.30933 -0.88144,0.50977 -1.44931,0.4911 -0.20485,-0.007 -0.3925,0.0213 -0.41699,0.0624 -0.0245,0.0411 -0.0757,0.34668 -0.11377,0.67917 -0.0381,0.33249 -0.15647,0.74591 -0.2631,0.91869 -0.26709,0.43281 -0.24624,0.55959 0.14976,0.91018 0.44363,0.39275 0.64738,1.0225 0.48031,1.48452 -0.16647,0.46037 -0.15213,0.54594 0.13366,0.79724 0.17915,0.15753 0.2895,0.40919 0.38057,0.86788 l 0.12827,0.64602 0.50103,0.018 c 0.97881,0.0352 1.5579,0.58846 1.5586,1.48917 5e-4,0.60315 -0.18013,1.04338 -0.60046,1.46371 -0.41889,0.41889 -0.82786,0.62828 -1.38648,0.70986 -0.43182,0.0631 -0.45058,0.0811 -0.62665,0.60176 -0.23795,0.7037 -0.8087,1.28861 -1.4405,1.47623 -0.66168,0.1965 -1.89611,0.25099 -3.45183,0.15238 z m 2.75474,-0.70884 c 0.35138,-0.057 0.74731,-0.17471 0.87984,-0.26155 0.35277,-0.23114 0.65476,-0.77585 0.7325,-1.3212 l 0.0682,-0.4783 0.60353,-0.0588 c 0.66073,-0.0644 1.08945,-0.24804 1.42805,-0.6117 0.50076,-0.53784 0.54132,-1.33681 0.0831,-1.63705 -0.27923,-0.18296 -0.91463,-0.21075 -1.3174,-0.0576 -0.54132,0.20582 -0.63861,0.0766 -0.57507,-0.76355 0.048,-0.63515 0.0286,-0.7838 -0.12446,-0.95295 -0.24824,-0.2743 -0.40871,-0.25699 -1.64453,0.17741 -1.02899,0.36171 -1.12865,0.37754 -2.33433,0.37096 -1.43991,-0.008 -2.07641,-0.1473 -3.41461,-0.74802 -1.20841,-0.54245 -1.35662,-0.56959 -1.62807,-0.29814 -0.20416,0.20415 -0.21839,0.28877 -0.16162,0.96046 0.0838,0.99127 4.1e-4,1.07816 -0.82761,0.86243 -0.5583,-0.14545 -0.63405,-0.14459 -0.96013,0.0109 -0.69293,0.33043 -0.88572,1.31533 -0.3373,1.72308 0.22428,0.16675 0.41781,0.20432 1.00569,0.19527 0.93275,-0.0144 1.10683,0.0757 1.07817,0.55803 -0.0391,0.65871 10e-4,0.81079 0.30772,1.15988 0.56935,0.64846 1.87435,1.03131 3.98058,1.16779 1.802,0.11676 2.4514,0.11732 3.15777,0.003 z m -0.36058,-6.49937 c 0.40109,-0.14469 0.89162,-0.30832 1.09006,-0.36363 0.87987,-0.24525 0.94217,-1.57829 0.0864,-1.84988 -0.0947,-0.03 -0.41293,0.0403 -0.70723,0.15627 -0.71812,0.28306 -1.85937,0.34917 -3.56873,0.20672 -1.49118,-0.12426 -2.48903,-0.31264 -2.96802,-0.56034 -0.2542,-0.13145 -0.33307,-0.13198 -0.6387,-0.004 -0.48294,0.20178 -0.61356,0.64323 -0.35696,1.20639 0.0958,0.21028 0.18695,0.25663 0.5046,0.25663 0.23619,0 0.84997,0.19307 1.57073,0.49408 0.65068,0.27174 1.43243,0.54334 1.73721,0.60354 0.30479,0.0602 0.64484,0.13028 0.75567,0.15571 0.48045,0.11025 1.79388,-0.0483 2.49492,-0.30121 z m 0.24775,-2.69231 c 0.7457,-0.40513 1.13087,-1.10807 1.13421,-2.06996 0.003,-0.97111 0.0641,-1.03392 0.93694,-0.96871 0.84079,0.0628 1.10886,-0.0384 1.45275,-0.54873 0.75483,-1.12009 0.10968,-2.11172 -1.19222,-1.83251 -0.35633,0.0764 -0.55448,0.0783 -0.6414,0.006 -0.0746,-0.0619 -0.14378,-0.44753 -0.17005,-0.94813 -0.0839,-1.59885 -0.49142,-1.74329 -1.78619,-0.63311 -0.58427,0.50098 -1.82396,1.03773 -2.71792,1.1768 -1.42342,0.22143 -2.77152,-0.0768 -4.0331,-0.89219 -0.34419,-0.22247 -0.69118,-0.3794 -0.77108,-0.34874 -0.21752,0.0835 -0.28037,0.48145 -0.19392,1.22799 0.16399,1.41622 0.097,1.55391 -0.62953,1.29352 -1.09762,-0.39341 -1.73822,-0.11893 -1.73822,0.7448 0,0.41405 0.0431,0.51349 0.32513,0.75083 0.31515,0.26518 0.35172,0.27157 1.19138,0.20819 1.00273,-0.0757 1.13399,-10e-4 1.25084,0.71218 0.0976,0.59596 0.56561,1.28051 1.07874,1.578 0.9547,0.55349 2.26974,0.76348 4.61739,0.7373 1.27329,-0.0142 1.62165,-0.05 1.88625,-0.19374 z m -2.36166,-6.6311 c 0.71311,-0.23911 1.13968,-0.47585 1.77736,-0.98641 0.24504,-0.19618 0.67355,-0.47453 0.95225,-0.61854 0.60916,-0.31478 0.76308,-0.68362 0.52402,-1.25576 -0.17045,-0.40796 -0.2782,-0.43394 -0.63516,-0.15315 -0.76809,0.60418 -4.10275,1.12003 -5.84263,0.90383 -0.47914,-0.0595 -1.14499,-0.2005 -1.47967,-0.31325 l -0.60851,-0.20499 -0.17917,0.22127 c -0.0985,0.1217 -0.17918,0.34615 -0.17918,0.49879 0,0.29432 0.33915,0.80847 0.53329,0.80847 0.0636,0 0.48381,0.22578 0.9338,0.50173 0.44998,0.27595 1.06342,0.56768 1.36319,0.64828 0.8296,0.22306 2.09186,0.20072 2.84041,-0.0503 z m 0.36285,-2.96302 c 1.11703,-0.21779 1.82953,-0.49335 2.15557,-0.83365 0.30023,-0.31338 0.57664,-1.00925 0.57664,-1.45173 0,-0.36131 0.23778,-0.84282 0.45792,-0.9273 0.0897,-0.0344 0.30674,-0.0636 0.48231,-0.0648 0.48858,-0.003 1.14641,-0.34787 1.37169,-0.71832 0.50846,-0.83608 -0.42172,-1.75034 -1.52846,-1.50232 -0.52715,0.11814 -0.78346,0.0611 -0.78346,-0.17426 0,-0.3428 -0.33533,-1.32834 -0.51907,-1.52556 -0.28124,-0.30188 -0.60698,-0.25886 -1.42522,0.18824 -0.79359,0.43363 -1.48221,0.70469 -2.48896,0.97974 -0.52477,0.14337 -1.06537,0.17982 -2.7204,0.18344 -2.65385,0.006 -2.77971,0.068 -2.47763,1.22482 0.18377,0.70373 0.12356,0.80118 -0.53402,0.86437 -0.59528,0.0572 -1.03448,0.35163 -1.27239,0.85299 -0.15579,0.32829 -0.16042,0.40602 -0.0373,0.62538 0.21265,0.37886 0.71088,0.46692 1.47363,0.26046 0.75985,-0.20568 0.88122,-0.142 0.97958,0.51396 0.12306,0.8206 0.84408,1.35948 2.22077,1.65977 0.59474,0.12973 3.0969,0.0343 4.0688,-0.15523 z"
         id="path20750" />
    </g>
  </g>
</svg>
