<?xml version="1.0" encoding="UTF-8" standalone="no"?>
<!-- Created with Inkscape (http://www.inkscape.org/) -->

<svg
   width="99.999947"
   height="99.999947"
   viewBox="0 0 26.45832 26.458322"
   version="1.1"
   id="svg1580"
   inkscape:version="1.2.2 (b0a8486541, 2022-12-01)"
   sodipodi:docname="img_target.svg"
   xmlns:inkscape="http://www.inkscape.org/namespaces/inkscape"
   xmlns:sodipodi="http://sodipodi.sourceforge.net/DTD/sodipodi-0.dtd"
   xmlns="http://www.w3.org/2000/svg"
   xmlns:svg="http://www.w3.org/2000/svg">
  <sodipodi:namedview
     id="namedview1582"
     pagecolor="#505050"
     bordercolor="#eeeeee"
     borderopacity="1"
     inkscape:showpageshadow="0"
     inkscape:pageopacity="0"
     inkscape:pagecheckerboard="0"
     inkscape:deskcolor="#505050"
     inkscape:document-units="mm"
     showgrid="false"
     inkscape:zoom="2.9248554"
     inkscape:cx="39.66008"
     inkscape:cy="52.310278"
     inkscape:window-width="1364"
     inkscape:window-height="751"
     inkscape:window-x="0"
     inkscape:window-y="15"
     inkscape:window-maximized="1"
     inkscape:current-layer="g22103" />
  <defs
     id="defs1577" />
  <g
     inkscape:label="Слой 1"
     inkscape:groupmode="layer"
     id="layer1"
     transform="translate(-138.99242,-143.95303)">
    <g
       id="g22103"
       transform="matrix(0.81509645,0,0,0.81509645,131.314,-269.73947)">
      <g
         id="g19567"
         transform="matrix(1.3163023,0,0,1.3163023,476.43792,-886.41935)">
        <path
           id="circle19558"
           style="fill:#b3b3b3;fill-opacity:1;stroke-width:3.77845;stroke-linejoin:round"
           d="m -343.11721,1059.5611 c -2.93691,0.3465 -5.64482,1.2828 -7.7711,3.452 -4.46291,4.5529 -4.5811,12.3279 0.10387,16.8016 1.4876,1.4206 3.27202,2.4244 5.25136,2.9682 1.38259,0.3795 2.8838,0.4993 4.30671,0.3308 5.77551,-0.6841 10.29903,-5.4345 10.55492,-11.2774 0.25031,-5.7161 -3.84818,-10.9283 -9.45162,-12.0488 -1.0843,-0.1757 -1.97751,-0.3447 -2.99414,-0.2264 z m -1.20767,2.0855 h 3.67626 v 3.1517 h 1.31309 c -0.69544,1.3478 -2.07941,2.4633 -2.99361,3.6763 1.48337,0.1181 2.61303,1.2473 2.7311,2.7311 1.21299,-0.9142 2.32901,-2.2981 3.67678,-2.9936 v 1.3131 h 3.15123 v 3.6762 h -3.15123 v 1.3131 c -1.34777,-0.6954 -2.46379,-2.0794 -3.67678,-2.9936 -0.11807,1.4837 -1.24773,2.6131 -2.7311,2.7311 0.9142,1.213 2.29817,2.329 2.99361,3.6768 h -1.31309 v 3.1512 h -3.67626 v -3.1512 h -1.3131 c 0.69544,-1.3478 2.07941,-2.4638 2.99361,-3.6768 -1.48017,-0.1178 -2.61335,-1.2517 -2.7311,-2.7311 -1.213,0.9142 -2.3285,2.2982 -3.67626,2.9936 v -1.3131 h -3.15174 v -3.6762 h 3.15174 v -1.3131 c 1.34776,0.6955 2.46326,2.0794 3.67626,2.9936 0.11775,-1.4794 1.25093,-2.6133 2.7311,-2.7311 -0.9142,-1.213 -2.29817,-2.3285 -2.99361,-3.6763 h 1.3131 z"
           sodipodi:nodetypes="csscssccccccccccccccccccccccccccccccccccc" />
        <path
           style="fill:#ffffff;fill-opacity:1;stroke:none;stroke-width:0.0525218"
           d="m -343.22215,1059.0432 c -3.03414,0.3983 -5.67205,1.3285 -7.93077,3.4987 -1.06544,1.0237 -1.96916,2.3241 -2.56628,3.6745 -2.48682,5.6238 -0.55307,12.2913 4.66712,15.615 1.09298,0.6959 2.317,1.199 3.57149,1.5126 1.54304,0.3858 3.15435,0.4541 4.72697,0.2423 5.83234,-0.7857 10.35101,-5.8439 10.60737,-11.6976 0.26597,-6.0735 -4.16572,-11.6693 -10.1872,-12.6794 -0.92712,-0.1556 -1.94993,-0.2894 -2.8887,-0.1661 m 0.10504,0.5179 c 0.9737,-0.1149 2.03906,0.036 2.99375,0.2266 5.60345,1.1206 9.70221,6.3324 9.45189,12.0485 -0.25589,5.8429 -4.77934,10.5932 -10.55485,11.2773 -1.42292,0.1685 -2.92421,0.049 -4.3068,-0.3305 -1.97934,-0.5438 -3.76382,-1.5476 -5.25142,-2.9682 -4.68498,-4.4737 -4.56666,-12.2486 -0.10374,-16.8015 2.12628,-2.1692 4.83425,-3.1057 7.77117,-3.4522 m -1.208,2.0859 v 3.1513 h -1.31305 c 0.69544,1.3478 2.07955,2.4635 2.99375,3.6765 -1.48017,0.1178 -2.61339,1.2518 -2.73114,2.7312 -1.213,-0.9142 -2.32877,-2.2983 -3.67653,-2.9938 v 1.3131 h -3.15132 v 3.6765 h 3.15132 v 1.313 c 1.34776,-0.6954 2.46353,-2.0795 3.67653,-2.9937 0.11775,1.4794 1.25097,2.6133 2.73114,2.7311 -0.9142,1.213 -2.29831,2.3288 -2.99375,3.6766 h 1.31305 v 3.1513 h 3.67653 v -3.1513 h 1.31305 c -0.69545,-1.3478 -2.07955,-2.4636 -2.99375,-3.6766 1.48337,-0.118 2.61307,-1.2474 2.73114,-2.7311 1.21299,0.9142 2.32876,2.2983 3.67653,2.9937 v -1.313 h 3.15131 v -3.6765 h -3.15131 v -1.3131 c -1.34777,0.6955 -2.46354,2.0796 -3.67653,2.9938 -0.11807,-1.4838 -1.24777,-2.6131 -2.73114,-2.7312 0.9142,-1.213 2.2983,-2.3287 2.99375,-3.6765 h -1.31305 v -3.1513 h -3.67653 m 3.15131,0.5252 v 3.1513 h 0.68278 l -1.94331,2.416 h -0.10504 l -1.94331,-2.416 h 0.68279 v -3.1513 h 2.62609 m -1.31305,6.8578 c 3.02337,0 3.02374,4.667 0,4.667 -3.02347,0 -3.02347,-4.667 0,-4.667 m -5.98749,0.3377 2.36348,1.9433 v 0.105 l -2.416,1.9434 v -0.6828 h -3.15132 v -2.6261 h 3.15132 l 0.0525,-0.6828 m 12.02751,0 v 0.6828 h 3.15131 v 2.6261 h -3.15131 v 0.6828 l -2.41601,-1.9434 v -0.105 l 2.41601,-1.9433 m -5.9875,5.6198 1.94331,2.416 h -0.68278 v 3.1514 h -2.62609 v -3.1514 h -0.68279 l 1.94331,-2.416 z"
           id="path19562" />
      </g>
    </g>
  </g>
</svg>
