<?xml version="1.0" encoding="UTF-8" standalone="no"?>
<!-- Created with Inkscape (http://www.inkscape.org/) -->

<svg
   width="99.999947"
   height="99.999947"
   viewBox="0 0 26.45832 26.458322"
   version="1.1"
   id="svg1580"
   inkscape:version="1.2.2 (b0a8486541, 2022-12-01)"
   sodipodi:docname="img_circulation.svg"
   xmlns:inkscape="http://www.inkscape.org/namespaces/inkscape"
   xmlns:sodipodi="http://sodipodi.sourceforge.net/DTD/sodipodi-0.dtd"
   xmlns="http://www.w3.org/2000/svg"
   xmlns:svg="http://www.w3.org/2000/svg">
  <sodipodi:namedview
     id="namedview1582"
     pagecolor="#505050"
     bordercolor="#eeeeee"
     borderopacity="1"
     inkscape:showpageshadow="0"
     inkscape:pageopacity="0"
     inkscape:pagecheckerboard="0"
     inkscape:deskcolor="#505050"
     inkscape:document-units="mm"
     showgrid="false"
     inkscape:zoom="2.9248554"
     inkscape:cx="39.66008"
     inkscape:cy="52.310278"
     inkscape:window-width="1364"
     inkscape:window-height="751"
     inkscape:window-x="0"
     inkscape:window-y="15"
     inkscape:window-maximized="1"
     inkscape:current-layer="g22103" />
  <defs
     id="defs1577" />
  <g
     inkscape:label="Слой 1"
     inkscape:groupmode="layer"
     id="layer1"
     transform="translate(-138.99242,-143.95303)">
    <g
       id="g22103"
       transform="matrix(0.81509645,0,0,0.81509645,131.314,-269.73947)">
      <path
         style="fill:#b3b3b3;fill-opacity:1;stroke-width:0.0634498"
         d="m 24.895458,537.94336 c -2.465226,-0.16411 -4.709163,-0.86189 -6.757418,-2.10133 -1.71197,-1.03603 -3.442678,-2.68405 -4.5163,-4.30051 -0.841929,-1.26775 -1.543347,-2.88095 -1.830541,-4.21024 l -0.11168,-0.51686 H 10.743523 9.8075256 l -0.196924,-0.22428 c -0.2137933,-0.24353 -0.236179,-0.34462 -0.1233877,-0.55711 0.1324808,-0.24976 3.9885681,-4.15278 4.1818661,-4.23288 0.106494,-0.0447 0.303127,-0.0623 0.452013,-0.0434 0.246399,0.0325 0.394639,0.16642 2.280814,2.05187 1.109509,1.10907 2.05202,2.10037 2.094469,2.20282 0.06756,0.16318 0.05793,0.2228 -0.07712,0.47852 l -0.154305,0.29204 -1.126236,0.0176 c -0.619428,0.0136 -1.126236,0.0393 -1.126236,0.0651 0,0.1003 0.383347,1.03671 0.606789,1.48174 0.523639,1.04321 1.152448,1.87664 2.10367,2.78841 1.382744,1.32549 3.10505,2.20568 5.098582,2.60599 1.024215,0.20571 2.690769,0.20612 3.721848,0 2.30197,-0.45791 4.386228,-1.67052 5.830485,-3.39186 0.260912,-0.31101 0.505263,-0.61484 0.54299,-0.67528 0.06234,-0.1003 0.243186,-0.0407 1.990395,0.64913 l 1.921768,0.75903 -0.231232,0.35613 c -2.295376,3.53538 -6.038818,5.90286 -10.132583,6.40835 -0.598575,0.0731 -2.073085,0.12874 -2.569724,0.0962 z m 12.055489,-11.22285 c -0.178096,-0.099 -3.903801,-3.89355 -4.076247,-4.15075 -0.156101,-0.23296 -0.139515,-0.35087 0.08551,-0.60699 l 0.19692,-0.22427 h 1.234981 c 1.14615,0 1.232664,-0.0136 1.202755,-0.11113 -0.01775,-0.061 -0.0641,-0.2396 -0.103125,-0.39652 -0.686814,-2.76659 -2.734464,-5.27352 -5.361642,-6.56418 -3.795241,-1.86445 -8.340609,-1.17616 -11.391712,1.72485 -0.686078,0.65239 -1.115461,1.16329 -1.611435,1.91744 l -0.321337,0.48854 -1.868085,-0.72014 c -1.027445,-0.39612 -1.877607,-0.72976 -1.889252,-0.74142 -0.05325,-0.0528 0.770335,-1.40178 1.244468,-2.03777 0.389063,-0.52174 0.621292,-0.78613 1.331275,-1.51535 4.03525,-4.14492 10.259037,-5.34967 15.679902,-3.03531 2.98551,1.27468 5.576977,3.74136 7.072518,6.73222 0.517173,1.03413 0.988,2.45462 1.217038,3.67171 l 0.110449,0.58691 h 0.934838 c 0.926192,0 0.936016,0 1.061953,0.16168 0.1572,0.19975 0.220486,0.46807 0.153269,0.6498 -0.0481,0.1301 -3.84206,3.98624 -4.108148,4.17556 -0.159177,0.11248 -0.588591,0.11112 -0.794875,0 z"
         id="path9731" />
    </g>
  </g>
</svg>
