<?xml version="1.0" encoding="UTF-8" standalone="no"?>
<!-- Created with Inkscape (http://www.inkscape.org/) -->

<svg
   width="99.999947"
   height="99.999947"
   viewBox="0 0 26.45832 26.458322"
   version="1.1"
   id="svg1580"
   inkscape:version="1.2.2 (b0a8486541, 2022-12-01)"
   sodipodi:docname="img_watch.svg"
   xmlns:inkscape="http://www.inkscape.org/namespaces/inkscape"
   xmlns:sodipodi="http://sodipodi.sourceforge.net/DTD/sodipodi-0.dtd"
   xmlns="http://www.w3.org/2000/svg"
   xmlns:svg="http://www.w3.org/2000/svg">
  <sodipodi:namedview
     id="namedview1582"
     pagecolor="#505050"
     bordercolor="#eeeeee"
     borderopacity="1"
     inkscape:showpageshadow="0"
     inkscape:pageopacity="0"
     inkscape:pagecheckerboard="0"
     inkscape:deskcolor="#505050"
     inkscape:document-units="mm"
     showgrid="false"
     inkscape:zoom="2.3272865"
     inkscape:cx="51.562195"
     inkscape:cy="51.13251"
     inkscape:window-width="1364"
     inkscape:window-height="751"
     inkscape:window-x="0"
     inkscape:window-y="15"
     inkscape:window-maximized="1"
     inkscape:current-layer="g22103" />
  <defs
     id="defs1577" />
  <g
     inkscape:label="Слой 1"
     inkscape:groupmode="layer"
     id="layer1"
     transform="translate(-138.99242,-143.95303)">
    <g
       id="g22103"
       transform="matrix(0.81509645,0,0,0.81509645,131.314,-269.73947)">
      <path
         style="fill:#ffffff;stroke-width:0.0634282"
         d="m 14.41511,539.95291 c -0.873337,-0.28757 -1.421506,-0.99802 -1.425296,-1.84731 -0.0031,-0.70312 0.126816,-0.93346 1.062028,-1.88233 l 0.823729,-0.83574 -0.150945,-0.18542 c -0.08302,-0.10226 -0.338696,-0.40233 -0.568169,-0.66748 -1.801812,-2.0824 -2.963654,-4.63479 -3.429795,-7.53487 -0.176742,-1.09956 -0.190153,-3.20324 -0.02726,-4.27553 0.51623,-3.39806 1.989915,-6.32158 4.373507,-8.67606 2.362876,-2.33403 5.374582,-3.7851 8.79301,-4.23671 0.747644,-0.0992 2.828938,-0.0992 3.551984,0 2.758527,0.376 5.126868,1.32372 7.221314,2.88965 6.206564,4.64048 7.90369,13.14568 3.950307,19.79719 -0.449524,0.75631 -1.154887,1.71354 -1.742712,2.36491 -0.232142,0.2573 -0.422089,0.4861 -0.422089,0.50841 0,0.0227 0.355693,0.39551 0.790415,0.82914 0.840677,0.83864 1.022443,1.12311 1.091764,1.70837 0.04483,0.37816 -0.09741,0.89123 -0.353782,1.27651 -0.350796,0.527 -1.137967,0.88534 -1.75836,0.80032 -0.587214,-0.0806 -0.840088,-0.25255 -1.833785,-1.24789 -0.521138,-0.52205 -0.975217,-0.94917 -1.009076,-0.94917 -0.03388,0 -0.490894,0.21289 -1.015648,0.47298 -1.949349,0.96642 -3.572584,1.408 -5.745261,1.56273 -2.669586,0.19017 -5.397768,-0.386 -7.859178,-1.66003 -0.399212,-0.20659 -0.756352,-0.37568 -0.793646,-0.37568 -0.03729,0 -0.494188,0.42712 -1.015318,0.94917 -0.719304,0.72048 -1.024636,0.98222 -1.267748,1.08686 -0.343373,0.14771 -0.981009,0.21382 -1.239995,0.12849 z m 10.275382,-4.77125 c 0,-0.8657 0.07239,-1.10617 0.404247,-1.34281 0.284196,-0.20277 0.817344,-0.19761 1.109351,0.0104 0.32185,0.22952 0.38925,0.46183 0.38925,1.34147 v 0.7682 l 0.174428,-0.0331 c 0.09594,-0.0186 0.331413,-0.0516 0.523283,-0.0743 1.093596,-0.12799 2.616952,-0.64425 3.742265,-1.26825 3.079828,-1.70764 5.1531,-4.70214 5.674868,-8.19646 0.04555,-0.30502 0.07003,-0.57596 0.05454,-0.6021 -0.0156,-0.0258 -0.379193,-0.0475 -0.808037,-0.0475 -0.705063,0 -0.800382,-0.0134 -0.995257,-0.14399 -0.60715,-0.40553 -0.553561,-1.3486 0.0941,-1.6559 0.163246,-0.0775 0.408062,-0.1033 0.988666,-0.1033 0.704382,0 0.769002,-0.0104 0.740896,-0.11094 -0.01694,-0.061 -0.04958,-0.2823 -0.07241,-0.49157 -0.147886,-1.3516 -0.827725,-3.19622 -1.647619,-4.47046 -1.756439,-2.72974 -4.661412,-4.59512 -7.850716,-5.04135 -0.304956,-0.0424 -0.568976,-0.063 -0.586712,-0.0455 -0.01774,0.0175 -0.03229,0.36276 -0.03234,0.76695 -1.26e-4,0.8152 -0.07648,1.063 -0.400979,1.30099 -0.250851,0.18406 -0.849843,0.18406 -1.100693,0 -0.324498,-0.23799 -0.40087,-0.48579 -0.400979,-1.30099 -5.5e-5,-0.40419 -0.01461,-0.7493 -0.03234,-0.76695 -0.04332,-0.0434 -1.033336,0.0992 -1.585175,0.22755 -1.067303,0.24894 -2.462961,0.82986 -3.329985,1.386 -2.581706,1.65569 -4.352773,4.14259 -5.002231,7.02377 -0.06684,0.29655 -0.140016,0.68184 -0.162611,0.8563 -0.02261,0.17436 -0.05654,0.39562 -0.07544,0.49147 l -0.03434,0.17447 h 0.772449 c 0.581302,0 0.826143,0.0258 0.989426,0.10329 0.627876,0.2979 0.701419,1.21743 0.130915,1.6368 -0.152832,0.11238 -0.299794,0.13593 -1.014854,0.1631 l -0.836143,0.032 0.0204,0.28541 c 0.01121,0.157 0.07649,0.5709 0.145036,0.91972 0.778903,3.96432 3.701072,7.23232 7.5728,8.46906 0.642685,0.20524 1.794399,0.45057 2.33099,0.49653 0.100122,0.0104 0.110999,-0.0661 0.110999,-0.75787 z m 0.729425,-7.83958 c -1.061777,-0.12034 -1.939675,-0.83151 -2.229028,-1.80589 -0.110762,-0.37299 -0.123718,-1.05711 -0.02618,-1.38248 0.07926,-0.26444 0.23166,-0.0196 -1.678774,-2.70207 -0.793314,-1.11412 -1.49572,-2.12516 -1.560902,-2.24674 -0.15671,-0.29231 -0.156167,-0.89504 0.0011,-1.24128 0.414293,-0.91208 1.681916,-1.10927 2.360211,-0.367 0.09059,0.0992 0.829776,1.12218 1.642633,2.27339 0.812855,1.15121 1.53259,2.15399 1.599411,2.22826 0.08585,0.095 0.219112,0.14337 0.454254,0.16279 0.476234,0.0392 1.121267,0.36111 1.496164,0.74608 l 0.31142,0.3197 h 1.783738 c 1.090945,0 1.89174,0.0269 2.061823,0.0702 0.349423,0.0878 0.774477,0.44684 0.927021,0.78265 0.245777,0.54116 0.121246,1.22155 -0.300812,1.64361 -0.388746,0.3887 -0.383964,0.38798 -2.539826,0.40884 l -1.977133,0.0196 -0.165474,0.21692 c -0.426497,0.55912 -1.413443,0.95856 -2.159663,0.87407 z M 11.045715,516.99989 c -0.03739,-0.0961 -0.141424,-0.44561 -0.231182,-0.77708 -0.143284,-0.52897 -0.16364,-0.73018 -0.166797,-1.64908 -0.0041,-1.21174 0.101755,-1.75848 0.538884,-2.7816 0.631941,-1.47907 1.750386,-2.68925 3.165062,-3.4245 1.754042,-0.91177 3.586775,-1.07322 5.423119,-0.47794 0.556752,0.18056 1.477436,0.63329 1.775334,0.87314 l 0.189625,0.15267 -0.284768,0.0733 c -2.070212,0.53371 -4.315195,1.67222 -6.088458,3.08756 -1.351638,1.0788 -2.849133,2.81175 -3.776249,4.36984 -0.238213,0.40037 -0.442897,0.72791 -0.454852,0.72791 -0.01196,0 -0.05233,-0.0785 -0.08972,-0.17436 z m 28.656543,-0.53847 c -2.127285,-3.57294 -5.547724,-6.21984 -9.528244,-7.37332 -0.308053,-0.0888 -0.570978,-0.17322 -0.584277,-0.18655 -0.04942,-0.0496 0.583369,-0.43817 1.146857,-0.70456 1.94403,-0.9189 4.193718,-0.8687 6.141415,0.13728 3.025073,1.56242 4.475689,5.02844 3.475279,8.30378 -0.07406,0.24264 -0.15521,0.46276 -0.180238,0.48941 -0.025,0.0269 -0.236894,-0.27322 -0.470792,-0.66604 z"
         id="path17651" />
    </g>
  </g>
</svg>
