<?xml version="1.0" encoding="UTF-8" standalone="no"?>
<!-- Created with Inkscape (http://www.inkscape.org/) -->

<svg
   width="100.40703"
   height="100.961"
   viewBox="0 0 26.566027 26.712598"
   version="1.1"
   id="svg1580"
   inkscape:version="1.2.2 (b0a8486541, 2022-12-01)"
   sodipodi:docname="main_logo.svg"
   xmlns:inkscape="http://www.inkscape.org/namespaces/inkscape"
   xmlns:sodipodi="http://sodipodi.sourceforge.net/DTD/sodipodi-0.dtd"
   xmlns="http://www.w3.org/2000/svg"
   xmlns:svg="http://www.w3.org/2000/svg">
  <sodipodi:namedview
     id="namedview1582"
     pagecolor="#505050"
     bordercolor="#eeeeee"
     borderopacity="1"
     inkscape:showpageshadow="0"
     inkscape:pageopacity="0"
     inkscape:pagecheckerboard="0"
     inkscape:deskcolor="#505050"
     inkscape:document-units="mm"
     showgrid="false"
     inkscape:zoom="2.1126006"
     inkscape:cx="6.8635786"
     inkscape:cy="44.494923"
     inkscape:window-width="1364"
     inkscape:window-height="751"
     inkscape:window-x="0"
     inkscape:window-y="15"
     inkscape:window-maximized="1"
     inkscape:current-layer="layer1" />
  <defs
     id="defs1577" />
  <g
     inkscape:label="Слой 1"
     inkscape:groupmode="layer"
     id="layer1"
     transform="translate(-138.99241,-143.95304)">
    <g
       id="g44429"
       transform="matrix(0.092315,0,0,0.092315,145.30486,152.19757)">
      <path
         id="path44301"
         style="display:inline;fill:#b3ff80;stroke:none;stroke-width:0.534354;stroke-linejoin:round"
         d="M 219.39639,49.131787 A 137.34612,137.34612 0 0 0 82.050295,-88.214275 137.34612,137.34612 0 0 0 -55.150168,45.232797 137.34612,137.34612 0 0 1 81.472035,-78.830352 137.34612,137.34612 0 0 1 218.81813,58.515707 a 137.34612,137.34612 0 0 1 -0.0486,3.61787 137.34612,137.34612 0 0 0 0.62684,-13.00179 z" />
      <path
         id="path44303"
         style="display:inline;fill:#b3ff80;stroke:none;stroke-width:0.534354;stroke-linejoin:round"
         d="M 206.16714,59.724917 A 137.34612,137.34612 0 0 1 68.821045,197.07106 137.34612,137.34612 0 0 1 -68.379446,63.623907 137.34612,137.34612 0 0 0 68.242785,187.68714 137.34612,137.34612 0 0 0 205.58889,50.340997 a 137.34612,137.34612 0 0 0 -0.0486,-3.61788 137.34612,137.34612 0 0 1 0.62685,13.0018 z" />
      <path
         id="path44305"
         style="display:inline;fill:#008080;fill-opacity:1;stroke:none;stroke-width:0.534354;stroke-linejoin:round"
         d="M 69.726945,185.23771 A 137.34612,137.34612 0 0 1 -67.619199,47.891607 137.34612,137.34612 0 0 1 65.827955,-89.308705 137.34612,137.34612 0 0 0 -58.23528,47.313347 137.34612,137.34612 0 0 0 79.110865,184.65945 a 137.34612,137.34612 0 0 0 3.61788,-0.0486 137.34612,137.34612 0 0 1 -13.0018,0.62684 z" />
      <path
         id="path44307"
         style="display:inline;fill:#008080;fill-opacity:1;stroke:none;stroke-width:0.534354;stroke-linejoin:round"
         d="M 80.320235,200.05447 A 137.34612,137.34612 0 0 0 217.66637,62.708367 137.34612,137.34612 0 0 0 84.219225,-74.49203 137.34612,137.34612 0 0 1 208.28245,62.130107 137.34612,137.34612 0 0 1 70.936315,199.47621 a 137.34612,137.34612 0 0 1 -3.61788,-0.0486 137.34612,137.34612 0 0 0 13.0018,0.62684 z" />
      <g
         id="g44427"
         transform="matrix(1.0810249,0,0,1.0810249,-386.32064,-113.40613)"
         style="display:inline">
        <g
           inkscape:groupmode="layer"
           id="g44321"
           inkscape:label="Мышцы 1 слева"
           transform="translate(403.75434,-5.2916669)">
          <path
             style="fill:#008080;fill-opacity:1;stroke:none;stroke-width:0.264583px;stroke-linecap:butt;stroke-linejoin:miter;stroke-opacity:1"
             d="m 18.756171,101.28935 c 0,0 0.396916,-3.301231 0.921952,-0.3252 0.987677,11.32256 -1.308865,22.18468 -8.210649,31.12538 -2.0728989,2.56183 -13.1940388,10.33744 1.396903,24.78377 3.93401,3.89502 4.354508,13.17648 4.150233,17.03279 -0.176021,3.32294 0.451794,53.85648 0.451794,53.85648 0,0 0.262531,12.05289 -4.416874,-0.41955 C 8.3701251,214.87058 2.973198,198.1309 0.72472319,195.64717 -1.5237516,193.16344 -8.216762,177.59182 -7.882643,165.00565 c 0.3341192,-12.58617 -4.352799,-17.37022 -11.799725,-23.13616 -7.446927,-5.76593 -4.627875,-6.24672 -0.62028,-6.32659 4.007595,-0.0799 34.650799,-3.21916 39.058819,-34.25355 z"
             id="path44309"
             sodipodi:nodetypes="cccsscsssscc" />
          <path
             style="fill:#008080;fill-opacity:1;stroke:none;stroke-width:0.264583px;stroke-linecap:butt;stroke-linejoin:miter;stroke-opacity:1"
             d="m -20.449215,157.96289 c -3.15079,1.56736 -15.069644,-5.28861 -7.304132,5.90245 1.93668,2.791 4.293163,13.87155 4.293163,13.87155 0,0 1.498529,13.94452 13.004366,17.82433 11.5058379,3.87981 5.8287013,-4.57613 4.4155084,-6.83084 -3.0907457,-4.9312 -5.1256004,-17.52941 -4.7826654,-24.84481 0.525936,-11.21915 -3.577168,-8.93179 -9.62624,-5.92268 z"
             id="path44311"
             sodipodi:nodetypes="sscssss" />
          <path
             style="fill:#008080;fill-opacity:1;stroke:none;stroke-width:0.264583px;stroke-linecap:butt;stroke-linejoin:miter;stroke-opacity:1"
             d="m -42.059394,161.26011 c 0,0 -8.371067,-8.04557 -3.480533,2.70758 4.890532,10.75315 5.996879,14.85422 6.512333,19.19581 0.515453,4.34158 3.757205,20.37517 24.471743,18.8389 20.7145373,-1.53628 1.657614,-2.84328 -2.922859,-6.28321 -7.074297,-5.31278 -6.461482,-10.92756 -9.562341,-14.62893 -5.957374,-7.11107 -4.57736,-10.43832 -15.018343,-19.83015 z"
             id="path44313"
             sodipodi:nodetypes="csssssc" />
          <path
             style="fill:#008080;fill-opacity:1;stroke:none;stroke-width:0.264583px;stroke-linecap:butt;stroke-linejoin:miter;stroke-opacity:1"
             d="m -78.992755,139.93363 c -1.724849,0.0912 -5.138756,-0.94425 -5.052698,3.93764 0.105953,6.01049 0.714195,6.40268 5.316966,5.14234 4.602768,-1.26034 17.332092,-0.71888 22.352913,1.35316 5.02082,2.07204 5.453813,1.09761 1.596591,-2.56849 -3.857223,-3.6661 -9.711377,-8.63143 -24.213772,-7.86465 z"
             id="path44315"
             sodipodi:nodetypes="ssssss" />
          <path
             style="fill:#008080;fill-opacity:1;stroke:none;stroke-width:0.264583px;stroke-linecap:butt;stroke-linejoin:miter;stroke-opacity:1"
             d="m -85.287069,161.82966 c 1.294662,9.49215 -0.339526,14.72656 9.717382,13.70341 10.05691,-1.02315 13.36304,-1.60849 13.36304,-1.60849 0,0 11.018428,-0.78795 1.475093,-4.01007 -9.807827,-3.31143 -12.515218,-5.24328 -15.264792,-6.78429 -6.159434,-4.79501 -10.233457,-8.86994 -9.290723,-1.30056 z"
             id="path44317"
             sodipodi:nodetypes="cscscc" />
          <path
             style="fill:#008080;stroke:none;stroke-width:0.264583px;stroke-linecap:butt;stroke-linejoin:miter;stroke-opacity:1"
             d="m 3.3469334,64.670042 c 0,0 8.7042896,-14.973286 21.3538306,-14.103003 0.800991,-1.21545 0.04869,-2.221016 0.04869,-2.221016 0,0 -17.7889913,-1.466667 -21.4025166,16.324019 z"
             id="path44319"
             sodipodi:nodetypes="cccsc" />
        </g>
        <g
           inkscape:groupmode="layer"
           id="g44331"
           inkscape:label="Мышцы 2 слева"
           style="display:inline;fill:#008000"
           transform="translate(403.75434,-5.2916669)">
          <path
             style="fill:#b3ff80;stroke:none;stroke-width:0.264583px;stroke-linecap:butt;stroke-linejoin:miter;stroke-opacity:1"
             d="m -51.776821,134.51227 c -5.864123,0.64361 -15.906693,5.20692 -6.707967,8.432 9.198727,3.22508 11.507907,5.53337 15.601791,7.78595 4.093888,2.25258 14.678591,4.09975 18.402889,4.21815 3.724299,0.11841 12.00826,-0.16429 6.579523,-5.39946 -9.848974,-12.07742 -14.476995,-17.14246 -33.876236,-15.03664 z"
             id="path44323"
             sodipodi:nodetypes="cssscc" />
          <path
             style="fill:#b3ff80;stroke:none;stroke-width:0.264583px;stroke-linecap:butt;stroke-linejoin:miter;stroke-opacity:1"
             d="m -73.313826,150.47056 c -3.094011,0.0626 -17.910797,0.337 -6.18435,6.92425 11.726447,6.58725 22.837532,11.61968 24.999535,12.50902 2.162,0.88934 11.185932,5.65663 7.820104,-1.91144 -4.561606,-10.25677 -2.159318,-18.0172 -26.635289,-17.52183 z"
             id="path44325"
             sodipodi:nodetypes="sssss" />
          <path
             style="fill:#b3ff80;stroke:none;stroke-width:0.264583px;stroke-linecap:butt;stroke-linejoin:miter;stroke-opacity:1"
             d="m -43.83907,152.68305 c -1.65391,-0.66923 -11.935078,-8.69191 -3.565072,1.93279 3.309944,4.20157 9.827707,6.50271 13.348981,11.84611 4.808566,7.29681 6.122887,9.82746 6.122887,9.82746 0,0 3.849112,5.27229 2.436011,-0.56794 -4.886761,-20.19657 -8.538918,-19.07143 -18.342807,-23.03842 z"
             id="path44327"
             sodipodi:nodetypes="ssscss" />
          <path
             style="fill:#b3ff80;stroke:none;stroke-width:0.264583px;stroke-linecap:butt;stroke-linejoin:miter;stroke-opacity:1"
             d="m -25.660528,203.46222 c -5.375583,-1.98701 -9.591585,-7.4597 -6.555962,4.46147 4.715965,18.52005 12.70625,23.00962 14.271707,31.82015 1.565457,8.81054 -2.567283,38.70588 25.7966995,35.6923 11.8679705,-1.26093 9.2841125,-3.44033 8.7461645,-7.17201 -3.333335,-23.12293 -4.204008,-54.07041 -22.4236424,-63.9479 -4.7358736,-2.56748 -10.1310486,2.7329 -19.8349666,-0.85401 z"
             id="path44329"
             sodipodi:nodetypes="sssssss" />
        </g>
        <g
           inkscape:groupmode="layer"
           id="g44337"
           inkscape:label="Голова"
           transform="translate(403.75434,-5.2916669)">
          <path
             style="fill:#e6e6e6;fill-opacity:1;stroke:none;stroke-width:0.264583px;stroke-linecap:butt;stroke-linejoin:miter;stroke-opacity:1"
             d="m 14.587823,103.66678 c -3.079322,5.80178 -5.1612255,7.58635 -5.0914256,12.17873 C 7.3150595,115.65116 10.289639,104.14249 3.0500223,96.415605 1.3952862,94.441259 2.2368331,83.138747 1.9329872,75.324077 1.6551813,68.179136 0.04521442,55.30674 13.327126,48.640163 c 3.068565,-1.540202 11.519288,-1.398526 11.519288,-1.398526 0,0 0.233741,-2.089509 0.04924,-3.750567 -25.33530199,-1.60379 -28.2613845,22.066588 -25.9722959,31.317625 1.22379178,4.945786 -2.6235895,5.18916 -2.6235895,5.18916 0,0 0.1394021,8.349679 2.1092932,13.531779 0.4918564,1.293903 -0.036292,3.529556 1.19540415,3.976931 6.58184945,1.384826 7.26628775,13.770775 7.44127995,15.920315 0.3033847,3.72666 1.8224462,7.339 4.8826281,3.50637 0.891237,-1.26821 5.057964,-10.15466 5.702456,-13.75753 0.644491,-3.602869 -0.714879,-3.722806 -3.043007,0.49106 z"
             id="path44333"
             sodipodi:nodetypes="cccssccscscsczc" />
          <path
             style="fill:#e6e6e6;fill-opacity:1;stroke:none;stroke-width:0.264583px;stroke-linecap:butt;stroke-linejoin:miter;stroke-opacity:1"
             d="m 34.724361,103.66678 c 3.079322,5.80178 5.161226,7.58635 5.091426,12.17873 2.181338,-0.19435 -0.793241,-11.70302 6.446375,-19.429905 1.654736,-1.974346 0.813189,-13.276858 1.117035,-21.091528 C 47.657003,68.179136 49.26697,55.30674 35.985058,48.640163 32.916493,47.099961 24.46577,47.241637 24.46577,47.241637 c 0,0 -0.233741,-2.089509 -0.04924,-3.750567 25.335303,-1.60379 28.261385,22.066588 25.972296,31.317625 -1.223791,4.945786 2.62359,5.18916 2.62359,5.18916 0,0 -0.139402,8.349679 -2.109293,13.531779 -0.491857,1.293903 0.03629,3.529556 -1.195404,3.976931 -6.58185,1.384826 -7.266288,13.770775 -7.44128,15.920315 -0.303385,3.72666 -1.822447,7.339 -4.882629,3.50637 -0.891237,-1.26821 -5.057964,-10.15466 -5.702456,-13.75753 -0.644491,-3.602867 0.714879,-3.722806 3.043007,0.49106 z"
             id="path44335"
             sodipodi:nodetypes="cccssccscscsczc" />
        </g>
        <g
           inkscape:groupmode="layer"
           id="g44351"
           inkscape:label="Мышцы 1 справа"
           transform="matrix(-1,0,0,1,451.85483,-5.2916669)">
          <path
             style="fill:#008080;fill-opacity:1;stroke:none;stroke-width:0.264583px;stroke-linecap:butt;stroke-linejoin:miter;stroke-opacity:1"
             d="m 18.756171,101.28935 c 0,0 0.396916,-3.301231 0.921952,-0.3252 0.987677,11.32256 -1.308865,22.18468 -8.210649,31.12538 -2.0728989,2.56183 -13.1940388,10.33744 1.396903,24.78377 3.93401,3.89502 4.354508,13.17648 4.150233,17.03279 -0.176021,3.32294 0.451794,53.85648 0.451794,53.85648 0,0 0.262531,12.05289 -4.416874,-0.41955 C 8.3701251,214.87058 2.973198,198.1309 0.72472319,195.64717 -1.5237516,193.16344 -8.216762,177.59182 -7.882643,165.00565 c 0.3341192,-12.58617 -4.352799,-17.37022 -11.799725,-23.13616 -7.446927,-5.76593 -4.627875,-6.24672 -0.62028,-6.32659 4.007595,-0.0799 34.650799,-3.21916 39.058819,-34.25355 z"
             id="path44339"
             sodipodi:nodetypes="cccsscsssscc" />
          <path
             style="fill:#008080;fill-opacity:1;stroke:none;stroke-width:0.264583px;stroke-linecap:butt;stroke-linejoin:miter;stroke-opacity:1"
             d="m -20.449215,157.96289 c -3.15079,1.56736 -15.069644,-5.28861 -7.304132,5.90245 1.93668,2.791 4.293163,13.87155 4.293163,13.87155 0,0 1.498529,13.94452 13.004366,17.82433 11.5058379,3.87981 5.8287013,-4.57613 4.4155084,-6.83084 -3.0907457,-4.9312 -5.1256004,-17.52941 -4.7826654,-24.84481 0.525936,-11.21915 -3.577168,-8.93179 -9.62624,-5.92268 z"
             id="path44341"
             sodipodi:nodetypes="sscssss" />
          <path
             style="fill:#008080;fill-opacity:1;stroke:none;stroke-width:0.264583px;stroke-linecap:butt;stroke-linejoin:miter;stroke-opacity:1"
             d="m -42.059394,161.26011 c 0,0 -8.371067,-8.04557 -3.480533,2.70758 4.890532,10.75315 5.996879,14.85422 6.512333,19.19581 0.515453,4.34158 3.757205,20.37517 24.471743,18.8389 20.7145373,-1.53628 1.657614,-2.84328 -2.922859,-6.28321 -7.074297,-5.31278 -6.461482,-10.92756 -9.562341,-14.62893 -5.957374,-7.11107 -4.57736,-10.43832 -15.018343,-19.83015 z"
             id="path44343"
             sodipodi:nodetypes="csssssc" />
          <path
             style="fill:#008080;fill-opacity:1;stroke:none;stroke-width:0.264583px;stroke-linecap:butt;stroke-linejoin:miter;stroke-opacity:1"
             d="m -78.992755,139.93363 c -1.724849,0.0912 -5.138756,-0.94425 -5.052698,3.93764 0.105953,6.01049 0.714195,6.40268 5.316966,5.14234 4.602768,-1.26034 17.332092,-0.71888 22.352913,1.35316 5.02082,2.07204 5.453813,1.09761 1.596591,-2.56849 -3.857223,-3.6661 -9.711377,-8.63143 -24.213772,-7.86465 z"
             id="path44345"
             sodipodi:nodetypes="ssssss" />
          <path
             style="fill:#008080;fill-opacity:1;stroke:none;stroke-width:0.264583px;stroke-linecap:butt;stroke-linejoin:miter;stroke-opacity:1"
             d="m -85.287069,161.82966 c 1.294662,9.49215 -0.339526,14.72656 9.717382,13.70341 10.05691,-1.02315 13.36304,-1.60849 13.36304,-1.60849 0,0 11.018428,-0.78795 1.475093,-4.01007 -9.807827,-3.31143 -12.515218,-5.24328 -15.264792,-6.78429 -6.159434,-4.79501 -10.233457,-8.86994 -9.290723,-1.30056 z"
             id="path44347"
             sodipodi:nodetypes="cscscc" />
          <path
             style="fill:#008080;stroke:none;stroke-width:0.264583px;stroke-linecap:butt;stroke-linejoin:miter;stroke-opacity:1"
             d="m 3.3469334,64.670042 c 0,0 7.6459556,-14.973286 20.2954966,-14.103003 0.810188,-1.024597 0.04869,-2.221016 0.04869,-2.221016 0,0 -16.7306573,-1.466667 -20.3441826,16.324019 z"
             id="path44349"
             sodipodi:nodetypes="cccsc" />
        </g>
        <g
           inkscape:groupmode="layer"
           id="g44361"
           inkscape:label="Мышцы 2 справа"
           style="display:inline;fill:#008000"
           transform="matrix(-1,0,0,1,451.85483,-5.2916669)">
          <path
             style="fill:#b3ff80;stroke:none;stroke-width:0.264583px;stroke-linecap:butt;stroke-linejoin:miter;stroke-opacity:1"
             d="m -51.776821,134.51227 c -5.864123,0.64361 -15.906693,5.20692 -6.707967,8.432 9.198727,3.22508 11.507907,5.53337 15.601791,7.78595 4.093888,2.25258 14.678591,4.09975 18.402889,4.21815 3.724299,0.11841 12.00826,-0.16429 6.579523,-5.39946 -9.848974,-12.07742 -14.476995,-17.14246 -33.876236,-15.03664 z"
             id="path44353"
             sodipodi:nodetypes="cssscc" />
          <path
             style="fill:#b3ff80;stroke:none;stroke-width:0.264583px;stroke-linecap:butt;stroke-linejoin:miter;stroke-opacity:1"
             d="m -73.313826,150.47056 c -3.094011,0.0626 -17.910797,0.337 -6.18435,6.92425 11.726447,6.58725 22.837532,11.61968 24.999535,12.50902 2.162,0.88934 11.185932,5.65663 7.820104,-1.91144 -4.561606,-10.25677 -2.159318,-18.0172 -26.635289,-17.52183 z"
             id="path44355"
             sodipodi:nodetypes="sssss" />
          <path
             style="fill:#b3ff80;stroke:none;stroke-width:0.264583px;stroke-linecap:butt;stroke-linejoin:miter;stroke-opacity:1"
             d="m -43.83907,152.68305 c -1.65391,-0.66923 -11.935078,-8.69191 -3.565072,1.93279 3.309944,4.20157 9.827707,6.50271 13.348981,11.84611 4.808566,7.29681 6.122887,9.82746 6.122887,9.82746 0,0 3.849112,5.27229 2.436011,-0.56794 -4.886761,-20.19657 -8.538918,-19.07143 -18.342807,-23.03842 z"
             id="path44357"
             sodipodi:nodetypes="ssscss" />
          <path
             style="fill:#b3ff80;stroke:none;stroke-width:0.264583px;stroke-linecap:butt;stroke-linejoin:miter;stroke-opacity:1"
             d="m -25.660528,203.46222 c -5.375583,-1.98701 -9.591585,-7.4597 -6.555962,4.46147 4.715965,18.52005 12.70625,23.00962 14.271707,31.82015 1.565457,8.81054 -2.567283,38.70588 25.7966995,35.6923 11.8679705,-1.26093 9.2841125,-3.44033 8.7461645,-7.17201 -3.333335,-23.12293 -4.204008,-54.07041 -22.4236424,-63.9479 -4.7358736,-2.56748 -10.1310486,2.7329 -19.8349666,-0.85401 z"
             id="path44359"
             sodipodi:nodetypes="sssssss" />
        </g>
        <g
           inkscape:groupmode="layer"
           id="g44393"
           inkscape:label="Позвонки"
           transform="translate(403.22517,-5.2916669)"
           style="display:none;fill:#f9f9f9">
          <rect
             style="fill:#f9f9f9;stroke:none;stroke-width:0.384795;stroke-linejoin:round"
             id="rect44363"
             width="3.0579975"
             height="4.2497416"
             x="22.981146"
             y="109.27692"
             rx="0"
             ry="0" />
          <rect
             style="fill:#f9f9f9;stroke:none;stroke-width:0.437338;stroke-linejoin:round"
             id="rect44365"
             width="3.364994"
             height="4.9887362"
             x="22.827648"
             y="116.26193"
             rx="0"
             ry="0" />
          <rect
             style="fill:#f9f9f9;stroke:none;stroke-width:0.662721;stroke-linejoin:round"
             id="rect44367"
             width="5.0782866"
             height="7.5907397"
             x="21.971003"
             y="123.57714"
             rx="0"
             ry="0" />
          <rect
             style="fill:#f9f9f9;stroke:none;stroke-width:0.904643;stroke-linejoin:round"
             id="rect44369"
             width="6.8184414"
             height="10.53439"
             x="21.100925"
             y="132.65089"
             rx="0"
             ry="0" />
          <rect
             style="fill:#f9f9f9;stroke:none;stroke-width:1.08993;stroke-linejoin:round"
             id="rect44371"
             width="8.3948469"
             height="12.41995"
             x="20.312723"
             y="144.97656"
             rx="0"
             ry="0" />
          <rect
             style="fill:#f9f9f9;stroke:none;stroke-width:0.740301;stroke-linejoin:round"
             id="rect44373"
             width="5.4259696"
             height="8.8649302"
             x="21.797161"
             y="159.4068"
             rx="0"
             ry="0" />
          <rect
             style="fill:#f9f9f9;stroke:none;stroke-width:0.792315;stroke-linejoin:round"
             id="rect44375"
             width="6.0879378"
             height="9.0502586"
             x="21.466177"
             y="170.63776"
             rx="0"
             ry="0" />
          <rect
             style="fill:#f9f9f9;stroke:none;stroke-width:0.87483;stroke-linejoin:round"
             id="rect44377"
             width="7.0405331"
             height="9.5406275"
             x="20.98988"
             y="182.06017"
             rx="0"
             ry="0" />
          <rect
             style="fill:#f9f9f9;stroke:none;stroke-width:1.02435;stroke-linejoin:round"
             id="rect44379"
             width="7.6287937"
             height="12.071975"
             x="20.695749"
             y="193.61319"
             rx="0"
             ry="0" />
          <rect
             style="fill:#f9f9f9;stroke:none;stroke-width:1.02028;stroke-linejoin:round"
             id="rect44381"
             width="8.0168715"
             height="11.396378"
             x="20.501711"
             y="207.71867"
             rx="0"
             ry="0" />
          <rect
             style="fill:#f9f9f9;stroke:none;stroke-width:0.781374;stroke-linejoin:round"
             id="rect44383"
             width="6.055757"
             height="8.8488293"
             x="21.482267"
             y="221.42126"
             rx="0"
             ry="0" />
          <rect
             style="fill:#f9f9f9;stroke:none;stroke-width:0.81296;stroke-linejoin:round"
             id="rect44385"
             width="7.1923513"
             height="8.0649881"
             x="20.913971"
             y="232.91684"
             rx="0"
             ry="0" />
          <rect
             style="fill:#f9f9f9;stroke:none;stroke-width:0.897135;stroke-linejoin:round"
             id="rect44387"
             width="8.4229202"
             height="8.3866844"
             x="20.298685"
             y="244.02327"
             rx="0"
             ry="0" />
          <rect
             style="fill:#f9f9f9;stroke:none;stroke-width:0.701092;stroke-linejoin:round"
             id="rect44389"
             width="6.7416773"
             height="6.3990951"
             x="21.139309"
             y="255.8282"
             rx="0"
             ry="0" />
          <rect
             style="fill:#f9f9f9;stroke:none;stroke-width:0.553905;stroke-linejoin:round"
             id="rect44391"
             width="5.3357058"
             height="5.046761"
             x="21.842293"
             y="265.80048"
             rx="0"
             ry="0" />
        </g>
        <g
           inkscape:groupmode="layer"
           id="g44425"
           inkscape:label="Позвонки 1">
          <rect
             style="display:inline;fill:#e6e6e6;stroke:none;stroke-width:0.067049;stroke-linejoin:round"
             id="rect44395"
             width="5.4707756"
             height="5.4707756"
             x="425.06348"
             y="105.74409"
             rx="1.2320786"
             ry="1.2320786" />
          <rect
             style="display:inline;fill:#e6e6e6;stroke:none;stroke-width:0.0769968;stroke-linejoin:round"
             id="rect44397"
             width="6.2824512"
             height="6.2824512"
             x="424.65765"
             y="116.23618"
             rx="1.4148767"
             ry="1.4148767" />
          <rect
             style="display:inline;fill:#e6e6e6;stroke:none;stroke-width:0.0864863;stroke-linejoin:round"
             id="rect44399"
             width="7.0567322"
             height="7.0567322"
             x="424.27051"
             y="126.74697"
             rx="1.5892533"
             ry="1.5892533" />
          <rect
             style="display:inline;fill:#e6e6e6;stroke:none;stroke-width:0.101008;stroke-linejoin:round"
             id="rect44401"
             width="8.2416124"
             height="8.2416124"
             x="423.67807"
             y="137.05246"
             rx="1.8561013"
             ry="1.8561013" />
          <rect
             style="display:inline;fill:#e6e6e6;stroke:none;stroke-width:0.0957205;stroke-linejoin:round"
             id="rect44403"
             width="7.8101859"
             height="7.8101859"
             x="423.89377"
             y="148.16609"
             rx="1.7589393"
             ry="1.7589393" />
          <rect
             style="display:inline;fill:#e6e6e6;stroke:none;stroke-width:0.0927007;stroke-linejoin:round"
             id="rect44405"
             width="7.5637937"
             height="7.5637937"
             x="424.01697"
             y="159.18723"
             rx="1.703449"
             ry="1.703449" />
          <rect
             style="display:inline;fill:#e6e6e6;stroke:none;stroke-width:0.0889827;stroke-linejoin:round"
             id="rect44407"
             width="7.2604208"
             height="7.2604208"
             x="424.16867"
             y="170.23683"
             rx="1.6351262"
             ry="1.6351262" />
          <rect
             style="display:inline;fill:#e6e6e6;stroke:none;stroke-width:0.0898896;stroke-linejoin:round"
             id="rect44409"
             width="7.3344183"
             height="7.3344183"
             x="424.13165"
             y="181.09776"
             rx="1.6517912"
             ry="1.6517912" />
          <rect
             style="display:inline;fill:#e6e6e6;stroke:none;stroke-width:0.0880144;stroke-linejoin:round"
             id="rect44411"
             width="7.1814165"
             height="7.1814165"
             x="424.20816"
             y="192.07219"
             rx="1.6173337"
             ry="1.6173337" />
          <rect
             style="display:inline;fill:#e6e6e6;stroke:none;stroke-width:0.0876151;stroke-linejoin:round"
             id="rect44413"
             width="7.1488376"
             height="7.1488376"
             x="424.22446"
             y="202.9864"
             rx="1.6099964"
             ry="1.6099964" />
          <rect
             style="display:inline;fill:#e6e6e6;stroke:none;stroke-width:0.0934116;stroke-linejoin:round"
             id="rect44415"
             width="7.6217957"
             height="7.6217957"
             x="423.98798"
             y="213.64786"
             rx="1.7165117"
             ry="1.7165117" />
          <rect
             style="display:inline;fill:#e6e6e6;stroke:none;stroke-width:0.0967659;stroke-linejoin:round"
             id="rect44417"
             width="7.8954806"
             height="7.8954806"
             x="423.85114"
             y="224.40894"
             rx="1.7781485"
             ry="1.7781485" />
          <rect
             style="display:inline;fill:#e6e6e6;stroke:none;stroke-width:0.0967343;stroke-linejoin:round"
             id="rect44419"
             width="7.8929057"
             height="7.8929057"
             x="423.85242"
             y="235.30815"
             rx="1.7775687"
             ry="1.7775687" />
          <rect
             style="display:inline;fill:#e6e6e6;stroke:none;stroke-width:0.101008;stroke-linejoin:round"
             id="rect44421"
             width="8.2416124"
             height="8.2416124"
             x="423.67807"
             y="246.03172"
             rx="1.8561013"
             ry="1.8561013" />
          <rect
             style="display:inline;fill:#e6e6e6;stroke:none;stroke-width:0.101008;stroke-linejoin:round"
             id="rect44423"
             width="8.2416124"
             height="8.2416124"
             x="423.67807"
             y="256.92966"
             rx="1.8561013"
             ry="1.8561013" />
        </g>
      </g>
    </g>
  </g>
</svg>
